<?xml version="1.0" encoding="UTF-8" standalone="no"?>
<svg
   xmlns:dc="http://purl.org/dc/elements/1.1/"
   xmlns:cc="http://creativecommons.org/ns#"
   xmlns:rdf="http://www.w3.org/1999/02/22-rdf-syntax-ns#"
   xmlns:svg="http://www.w3.org/2000/svg"
   xmlns="http://www.w3.org/2000/svg"
   xmlns:sodipodi="http://sodipodi.sourceforge.net/DTD/sodipodi-0.dtd"
   xmlns:inkscape="http://www.inkscape.org/namespaces/inkscape"
   version="1.2"
   width="170px"
   height="165px"
   viewBox="0 0 170 165"
   preserveAspectRatio="none"
   id="svg3356"
   inkscape:version="0.91 r13725"
   sodipodi:docname="Logo mit weißem Kreis ohne Schrift.svg"
   inkscape:export-filename="D:\Dropbox\Dokumente\Freifunk Harz\Logo\Freifunk-kreis logo.png"
   inkscape:export-xdpi="90"
   inkscape:export-ydpi="90">
  <metadata
     id="metadata3404">
    <rdf:RDF>
      <cc:Work
         rdf:about="">
        <dc:format>image/svg+xml</dc:format>
        <dc:type
           rdf:resource="http://purl.org/dc/dcmitype/StillImage" />
        <dc:title />
      </cc:Work>
    </rdf:RDF>
  </metadata>
  <defs
     id="defs3402" />
  <sodipodi:namedview
     pagecolor="#ffffff"
     bordercolor="#666666"
     borderopacity="1"
     objecttolerance="10"
     gridtolerance="10"
     guidetolerance="10"
     inkscape:pageopacity="0"
     inkscape:pageshadow="2"
     inkscape:window-width="1920"
     inkscape:window-height="1028"
     id="namedview3400"
     showgrid="true"
     showguides="true"
     inkscape:guide-bbox="true"
     inkscape:zoom="4"
     inkscape:cx="26.614056"
     inkscape:cy="89.964242"
     inkscape:window-x="-8"
     inkscape:window-y="-8"
     inkscape:window-maximized="1"
     inkscape:current-layer="svg3356"
     inkscape:snap-object-midpoints="false" />
  <ellipse
     style="fill:#ffffff;fill-rule:evenodd;stroke:none;stroke-width:1px;stroke-linecap:butt;stroke-linejoin:miter;stroke-opacity:1"
     id="path3415"
     cx="84.625"
     cy="82.375"
     rx="84.875"
     ry="82.375" />
  <!-- Designed by Monic Meisel and hand-coded as SVG by Alina Friedrichsen -->
  <g
     id="g3362"
     transform="matrix(0.92005421,0,0,0.9255618,3.9442825,3.6101276)">
    <circle
       cx="36"
       cy="54"
       r="22"
       transform="matrix(1.477616,0,0,1.5065066,-3.122124,-2.4350016)"
       stroke-miterlimit="4"
       id="circle3364"
       style="fill:none;stroke:#de2c68;stroke-width:1.14544892;stroke-miterlimit:4;stroke-dasharray:none;stroke-opacity:1" />
    <circle
       cx="74"
       cy="44"
       r="22"
       transform="matrix(1.5950476,0,0,1.6223254,-10.072136,-9.1778182)"
       stroke-miterlimit="4"
       id="circle3366"
       style="fill:#000000;fill-opacity:0;stroke:#de2c68;stroke-width:1.06239557;stroke-miterlimit:4;stroke-dasharray:none;stroke-opacity:1" />
    <circle
       cx="74"
       cy="44"
       r="29"
       transform="matrix(1.5831269,0,0,1.5986441,-9.3397104,-8.1360194)"
       stroke-miterlimit="4"
       id="circle3368"
       style="fill:none;stroke:#de2c68;stroke-width:5.81192684;stroke-miterlimit:4;stroke-dasharray:none;stroke-opacity:1" />
    <polygon
       points="30,52 26,56 31,56 37,50 31,44 26,44 30,48 22,48 22,52 "
       transform="matrix(1.4493674,0,0,1.3737988,-2.70016,2.5042672)"
       id="polygon3370"
       style="fill:#ffcc33;fill-opacity:1" />
    <polygon
       points="75,53 88,53 88,47 75,47 81,41 73,41 64,50 73,59 81,59 "
       transform="matrix(1.5159598,0,0,1.568926,-29.894574,-21.558961)"
       id="polygon3372"
       style="fill:#ffcc33;fill-opacity:1" />
  </g>
  <g
     id="layer1-9"
     inkscape:label="Ebene 1"
     transform="matrix(0.92005421,0,0,0.9255618,-376.17584,-405.2935)">
    <path
       inkscape:connector-curvature="0"
       id="path3498-1"
       d="m 416.0587,587.40999 c 9.10897,-1.25196 14.81506,-2.7582 20.36987,-5.04779 L 445,580.21935 l 8.92857,-1.90859 11.42857,-1.66284 13.92858,-1.78572 19.17547,-1.23104 13.68167,-0.19753 11.78571,0.35715 5.89918,-0.73839 13.38654,-1.76161 15.35714,0.71428 19.93915,0.81305"
       style="fill:none;fill-rule:evenodd;stroke:#000000;stroke-width:1px;stroke-linecap:butt;stroke-linejoin:miter;stroke-opacity:1"
       sodipodi:nodetypes="ccccccccccccc" />
    <rect
       y="566.98389"
       x="480.70633"
       height="7.5160732"
       width="14.14212"
       id="rect3542-0"
       style="fill:#000000" />
    <path
       inkscape:connector-curvature="0"
       d="m 481.50738,572.09905 c 0.0215,0.35326 0.0249,0.70767 0.052,1.06053 0.0204,0.21828 0.0466,0.43594 0.0613,0.65471 0.004,0.0791 0.006,0.15821 0.007,0.23734 0,0 -0.83399,0.42657 -0.83399,0.42657 l 0,0 c -8.5e-4,-0.078 -0.002,-0.1561 -0.005,-0.23407 -0.0102,-0.21997 -0.031,-0.43914 -0.0507,-0.65842 -0.0249,-0.35144 -0.0213,-0.70475 -0.06,-1.05537 0,0 0.82935,-0.43129 0.82935,-0.43129 z"
       id="path3550-7"
       style="fill:#000000" />
    <path
       inkscape:connector-curvature="0"
       d="m 482.36692,571.91372 c 0.32157,0.0603 0.64521,0.11141 0.97053,0.14779 0.0439,0.004 0.0877,0.008 0.13158,0.0119 0.0378,0.003 0.0762,4.6e-4 0.11339,0.008 0.047,0.009 0.13648,0.0496 0.18411,0.0664 0.0609,0.0215 0.0825,0.0251 0.14431,0.0399 0.0841,0.0278 0.17585,0.0107 0.26105,0.0256 0.0429,0.008 0.0836,0.0244 0.12609,0.0341 0.15111,0.0175 0.29684,0.0506 0.44808,0.0684 0.2608,0.026 0.52322,0.0262 0.78501,0.0312 0.27321,0.005 0.54651,0.002 0.81972,-10e-4 0,0 -1.75362,1.27415 -1.75362,1.27415 l 0,0 c -0.27152,-0.004 -0.54306,-0.007 -0.81461,-0.006 -0.27133,-0.002 -0.54364,-0.006 -0.81305,-0.0415 -0.157,-0.0214 -0.31439,-0.041 -0.46936,-0.0744 -0.13079,-0.0247 -0.26657,-0.0263 -0.39283,-0.075 -0.17582,-0.0575 -0.34938,-0.10205 -0.53578,-0.11324 -0.32752,-0.0499 -0.6545,-0.11014 -0.98577,-0.12862 0,0 1.78115,-1.26715 1.78115,-1.26715 z"
       id="path3566-4"
       style="fill:#000000" />
    <ellipse
       ry="3.7249374"
       rx="3.5513175"
       cy="566.69983"
       cx="487.36703"
       id="path3576-9"
       style="fill:#000000" />
    <rect
       id="rect5406"
       width="3.7369337"
       height="1.8205575"
       x="528.84576"
       y="571.23676" />
    <rect
       id="rect5402"
       width="26.017588"
       height="2.6085341"
       x="503.96808"
       y="570.90955"
       ry="0" />
    <rect
       y="568.70148"
       x="503.97116"
       height="2.3444071"
       width="46.207401"
       id="rect3590-1"
       style="fill:#000000" />
    <rect
       y="567.48895"
       x="545.16669"
       height="2.3359778"
       width="4.6719556"
       id="rect3610-2"
       style="fill:#000000" />
    <rect
       y="565.97375"
       x="539.48462"
       height="4.6719556"
       width="4.4825521"
       id="rect3612-9"
       style="fill:#000000" />
    <rect
       y="568.07648"
       x="564.375"
       height="4.2857141"
       width="5.9375"
       id="rect3616-4"
       style="fill:#000000" />
    <rect
       y="564.54968"
       x="565.08929"
       height="5.1339288"
       width="4.4642859"
       id="rect3618-5"
       style="fill:#000000" />
    <rect
       ry="0.44642901"
       y="550.76624"
       x="515.06165"
       height="1.3392857"
       width="12.857142"
       id="rect3663-8"
       style="fill:#999999" />
    <rect
       ry="0.44642901"
       y="559.39343"
       x="515.14551"
       height="1.5178572"
       width="12.67857"
       id="rect3672-9"
       style="fill:#999999" />
    <rect
       ry="0.089285716"
       y="551.55865"
       x="520.08929"
       height="0.17857143"
       width="0.17857143"
       id="rect3674-4"
       style="fill:#999999" />
    <rect
       ry="0.089285702"
       y="551.38007"
       x="519.34735"
       height="13.482142"
       width="4.2857141"
       id="rect3676-0"
       style="fill:#999999" />
    <rect
       ry="0.44600001"
       y="555.13007"
       x="517.72919"
       height="1.6964285"
       width="7.5"
       id="rect3678-2"
       style="fill:#999999" />
    <rect
       ry="0.44"
       y="563.96936"
       x="515.15466"
       height="1.5178572"
       width="12.67857"
       id="rect3680-6"
       style="fill:#999999" />
    <rect
       ry="0.44600001"
       y="566.20142"
       x="508.02634"
       height="0.8035714"
       width="26.875"
       id="rect3682-5"
       style="fill:#999999" />
    <path
       inkscape:connector-curvature="0"
       id="path3694-8"
       d="m 521.51786,564.41577 c 0,0 -0.17857,0 0,0 z"
       style="fill:none;fill-rule:evenodd;stroke:#999999;stroke-width:1px;stroke-linecap:butt;stroke-linejoin:miter;stroke-opacity:1" />
    <rect
       ry="0.089285702"
       y="564.90045"
       x="519.40784"
       height="1.5783633"
       width="3.7249374"
       id="rect3712-0"
       style="fill:#999999;fill-opacity:1" />
    <rect
       ry="0"
       y="558.0188"
       x="524.14288"
       height="0"
       width="0"
       id="rect3716-6"
       style="fill:#000000;fill-opacity:1" />
    <rect
       y="512.4129"
       x="520.58771"
       height="5.6116405"
       width="1.7706406"
       id="rect3752-3"
       style="fill:#ffffff;fill-opacity:1;stroke:#000000;stroke-width:0.193;stroke-miterlimit:4;stroke-dasharray:none;stroke-opacity:1" />
    <rect
       y="505.04077"
       x="520.53571"
       height="7.3214288"
       width="1.875"
       id="rect3766-5"
       style="fill:#ff0000;fill-opacity:1" />
    <rect
       y="518.04309"
       x="520.2323"
       height="5"
       width="2.5"
       id="rect3771-0"
       style="fill:#ff0000;fill-opacity:1" />
    <rect
       y="523.07397"
       x="520.21649"
       height="7.1966119"
       width="2.5099323"
       id="rect3785-3"
       style="fill:#ffffff;fill-opacity:1;stroke:#000000;stroke-width:0.20100001;stroke-miterlimit:4;stroke-dasharray:none;stroke-opacity:1" />
    <rect
       ry="0.29699999"
       y="530.33649"
       x="519.11523"
       height="7.4720001"
       width="4.7321501"
       id="rect3793-2"
       style="fill:#ff0000;fill-opacity:1" />
    <rect
       y="537.74603"
       x="519.18011"
       height="13.021917"
       width="4.533917"
       id="rect3795-2"
       style="fill:#ffffff;fill-opacity:1;stroke:#000000;stroke-width:0.199;stroke-miterlimit:4;stroke-dasharray:none;stroke-opacity:1" />
    <rect
       y="505.21936"
       x="520.53571"
       height="1.5178572"
       width="1.875"
       id="rect3799-1"
       style="fill:#ff0000;fill-opacity:1" />
    <rect
       rx="0.80000001"
       y="504.86221"
       x="520.53571"
       height="2.3110001"
       width="1.875"
       id="rect3804-4"
       style="fill:#ff0000;fill-opacity:1" />
    <rect
       rx="0.80000001"
       y="504.05862"
       x="520.53571"
       height="2.1965535"
       width="1.875"
       id="rect3806-5"
       style="fill:#ff0000;fill-opacity:1" />
    <rect
       y="570.23535"
       x="547.5658"
       height="1.4520943"
       width="2.6200831"
       id="rect3826-6"
       style="fill:#000000;fill-opacity:1" />
    <rect
       y="565.40552"
       x="522.78552"
       height="1.2626907"
       width="1.0101526"
       id="rect3828-1"
       style="fill:#999999;fill-opacity:1" />
    <path
       inkscape:connector-curvature="0"
       id="path3848-8"
       d="m 515.4822,571.03423 c 0.048,-0.007 0.11901,-0.007 0.15783,4.3e-4 0.0388,0.007 -4.3e-4,0.0134 -0.0872,0.0132 -0.0868,-2.4e-4 -0.11858,-0.006 -0.0706,-0.0136 z"
       style="fill:#000000;fill-opacity:1" />
    <path
       inkscape:connector-curvature="0"
       id="path3692-8"
       d="m 520.45811,564.62259 -6.73881,9.06784"
       style="fill:#b3b3b3;fill-rule:evenodd;stroke:#999999;stroke-width:1.1129781px;stroke-linecap:butt;stroke-linejoin:miter;stroke-opacity:1" />
    <path
       inkscape:connector-curvature="0"
       id="path3700-0"
       d="m 520.62673,564.96732 5.36108,8.85118"
       style="fill:none;fill-rule:evenodd;stroke:#999999;stroke-width:1.03227329px;stroke-linecap:butt;stroke-linejoin:miter;stroke-opacity:1" />
    <path
       inkscape:connector-curvature="0"
       id="path3692-0"
       d="m 522.82253,564.67204 -6.73881,9.06784"
       style="fill:#b3b3b3;fill-rule:evenodd;stroke:#999999;stroke-width:1.1129781px;stroke-linecap:butt;stroke-linejoin:miter;stroke-opacity:1" />
    <path
       style="fill:none;fill-rule:evenodd;stroke:#000000;stroke-width:1.01037967px;stroke-linecap:butt;stroke-linejoin:miter;stroke-opacity:1"
       d="m 578.46317,572.80746 3.93271,0.40575 2.28686,0.45648 1.45527,-0.0845"
       id="path5392"
       inkscape:connector-curvature="0" />
    <ellipse
       id="path5404"
       cx="535.49872"
       cy="571.29669"
       rx="6.3794556"
       ry="1.1324742" />
    <path
       inkscape:connector-curvature="0"
       id="path3700-05"
       d="m 522.69376,564.00164 6.01402,9.46712"
       style="fill:none;fill-rule:evenodd;stroke:#999999;stroke-width:1.13073182px;stroke-linecap:butt;stroke-linejoin:miter;stroke-opacity:1" />
  </g>
  <path
     style="fill:#ffffff;fill-opacity:0"
     id="path3385"
     inkscape:export-xdpi="90"
     inkscape:export-ydpi="90"
     ry="81.875"
     rx="84.125"
     cy="82.125"
     cx="84.875"
     d=""
     inkscape:connector-curvature="0" />
</svg>
