<?xml version="1.0" encoding="utf-8"?>
<!-- Generator: Adobe Illustrator 16.0.4, SVG Export Plug-In . SVG Version: 6.00 Build 0)  -->
<!DOCTYPE svg PUBLIC "-//W3C//DTD SVG 1.1//EN" "http://www.w3.org/Graphics/SVG/1.1/DTD/svg11.dtd">
<svg version="1.1" id="bunt" xmlns="http://www.w3.org/2000/svg" xmlns:xlink="http://www.w3.org/1999/xlink" x="0px" y="0px"
	 width="283.464px" height="283.464px" viewBox="0 0 283.464 283.464" enable-background="new 0 0 283.464 283.464"
	 xml:space="preserve">
<rect fill="#FFFFFF" width="283.464" height="283.464"/>
<g id="schrift_1_">
	<g>
		<path fill="#4A4A49" d="M15.984,259.475c0.416-0.57,0.925-1.016,1.529-1.336c0.604-0.319,1.272-0.48,2.006-0.48
			c1.378,0,2.461,0.434,3.248,1.301c0.787,0.868,1.18,2.208,1.18,4.02v7.425h-3.573v-7.465c0-0.974-0.181-1.663-0.543-2.069
			c-0.363-0.405-0.904-0.608-1.621-0.608c-0.489,0-0.922,0.082-1.297,0.25c-0.375,0.166-0.685,0.399-0.93,0.7v9.192h-3.572v-18.042
			h3.572V259.475z"/>
		<path fill="#4A4A49" d="M38.915,270.404c-0.13-0.285-0.243-0.587-0.336-0.902c-0.094-0.317-0.161-0.641-0.202-0.972
			c-0.367,0.608-0.85,1.113-1.45,1.514c-0.599,0.401-1.314,0.603-2.146,0.603c-1.386,0-2.454-0.337-3.205-1.013
			c-0.75-0.674-1.125-1.593-1.125-2.757c0-1.227,0.499-2.176,1.498-2.852c0.999-0.674,2.456-1.012,4.373-1.012h1.994v-0.994
			c0-0.602-0.167-1.067-0.501-1.399c-0.334-0.331-0.828-0.498-1.48-0.498c-0.58,0-1.026,0.134-1.34,0.399s-0.47,0.634-0.47,1.104
			l-3.45-0.012l-0.012-0.069c-0.058-1.056,0.428-1.967,1.456-2.735c1.027-0.767,2.377-1.15,4.049-1.15
			c1.582,0,2.866,0.381,3.853,1.14c0.986,0.76,1.481,1.841,1.481,3.243v5.17c0,0.586,0.046,1.137,0.14,1.654
			c0.094,0.516,0.242,1.029,0.446,1.538H38.915z M35.649,268.148c0.627,0,1.187-0.146,1.676-0.438
			c0.49-0.295,0.82-0.633,0.991-1.019v-1.77h-1.994c-0.758,0-1.333,0.18-1.724,0.537c-0.392,0.359-0.588,0.792-0.588,1.301
			c0,0.417,0.146,0.753,0.44,1.008C34.743,268.021,35.143,268.148,35.649,268.148z"/>
		<path fill="#4A4A49" d="M56.073,260.792l-1.31-0.034c-0.53,0-0.966,0.105-1.308,0.312c-0.343,0.21-0.603,0.502-0.783,0.88v8.454
			h-3.56V257.89h3.315l0.159,1.851c0.31-0.654,0.712-1.166,1.205-1.531c0.494-0.367,1.062-0.551,1.708-0.551
			c0.179,0,0.344,0.014,0.495,0.041c0.151,0.026,0.303,0.06,0.459,0.099L56.073,260.792z"/>
		<path fill="#4A4A49" d="M66.38,267.802h6.556v2.602H61.939v-1.999l6.299-7.911h-6.104v-2.604h10.594v1.923L66.38,267.802z"/>
		<path fill="#4A4A49" d="M83.659,270.404h-3.571v-2.962h3.571V270.404z"/>
		<path fill="#4A4A49" d="M92.426,270.404v-10.143h-1.97v-2.371h1.97v-1.388c0-1.403,0.427-2.483,1.284-3.244
			c0.856-0.759,2.059-1.139,3.608-1.139c0.302,0,0.61,0.021,0.923,0.063c0.314,0.043,0.659,0.104,1.035,0.179l-0.306,2.511
			c-0.195-0.031-0.385-0.059-0.569-0.081c-0.184-0.023-0.398-0.034-0.643-0.034c-0.58,0-1.017,0.15-1.315,0.45
			c-0.297,0.3-0.446,0.732-0.446,1.295v1.388h2.63v2.371h-2.63v10.143H92.426z"/>
		<path fill="#4A4A49" d="M111.92,260.792l-1.309-0.034c-0.531,0-0.967,0.105-1.309,0.312c-0.342,0.21-0.604,0.502-0.783,0.88v8.454
			h-3.559V257.89h3.314l0.16,1.851c0.309-0.654,0.71-1.166,1.204-1.531c0.494-0.367,1.062-0.551,1.707-0.551
			c0.178,0,0.344,0.014,0.495,0.041c0.151,0.026,0.304,0.06,0.459,0.099L111.92,260.792z"/>
		<path fill="#4A4A49" d="M124.099,270.646c-1.908,0-3.434-0.578-4.575-1.734s-1.713-2.626-1.713-4.407v-0.462
			c0-1.856,0.541-3.389,1.621-4.592c1.082-1.202,2.531-1.799,4.348-1.792c1.787,0,3.173,0.509,4.16,1.527
			c0.986,1.018,1.48,2.393,1.48,4.129v1.838h-7.902l-0.024,0.069c0.064,0.821,0.356,1.497,0.874,2.027
			c0.518,0.53,1.221,0.794,2.11,0.794c0.791,0,1.448-0.074,1.969-0.225c0.522-0.15,1.093-0.388,1.714-0.711l0.966,2.085
			c-0.539,0.419-1.244,0.767-2.116,1.041C126.136,270.508,125.166,270.646,124.099,270.646z M123.78,260.261
			c-0.66,0-1.182,0.239-1.565,0.716c-0.383,0.479-0.619,1.107-0.708,1.887l0.037,0.057h4.378v-0.299c0-0.72-0.177-1.29-0.532-1.719
			C125.035,260.476,124.498,260.261,123.78,260.261z"/>
		<path fill="#4A4A49" d="M139.765,254.896h-3.572v-2.534h3.572V254.896z M139.765,270.404h-3.572V257.89h3.572V270.404z"/>
		<path fill="#4A4A49" d="M148.138,270.404v-10.143h-1.97v-2.371h1.97v-1.388c0-1.403,0.429-2.483,1.283-3.244
			c0.857-0.759,2.062-1.139,3.608-1.139c0.302,0,0.611,0.021,0.924,0.063c0.314,0.043,0.66,0.104,1.035,0.179l-0.306,2.511
			c-0.195-0.031-0.386-0.059-0.569-0.081c-0.185-0.023-0.397-0.034-0.644-0.034c-0.578,0-1.016,0.15-1.313,0.45
			s-0.447,0.732-0.447,1.295v1.388h2.631v2.371h-2.631v10.143H148.138z"/>
		<path fill="#4A4A49" d="M168.757,268.6c-0.407,0.654-0.926,1.159-1.554,1.515c-0.629,0.354-1.351,0.531-2.165,0.531
			c-1.394,0-2.485-0.423-3.272-1.267c-0.786-0.845-1.18-2.157-1.18-3.938v-7.552h3.56v7.593c0,0.912,0.164,1.566,0.489,1.965
			c0.326,0.397,0.808,0.596,1.442,0.596c0.571,0,1.06-0.087,1.47-0.26c0.406-0.175,0.74-0.431,1.001-0.771v-9.122h3.573v12.514
			h-3.045L168.757,268.6z"/>
		<path fill="#4A4A49" d="M182.588,257.89l0.158,1.792c0.439-0.64,0.982-1.137,1.626-1.49c0.645-0.354,1.367-0.533,2.166-0.533
			c1.338,0,2.382,0.397,3.131,1.191c0.751,0.795,1.126,2.04,1.126,3.735v7.818h-3.585v-7.825c0-0.841-0.18-1.438-0.538-1.79
			c-0.358-0.351-0.899-0.527-1.626-0.527c-0.473,0-0.896,0.091-1.272,0.271c-0.375,0.183-0.689,0.438-0.941,0.772v9.099h-3.571
			V257.89H182.588z"/>
		<path fill="#4A4A49" d="M202.521,265.165h-0.979v5.239h-3.571v-18.042h3.571v10.235h0.882l3.069-4.707h4.134l-4.23,5.667
			l4.881,6.847h-4.099L202.521,265.165z"/>
		<path fill="#4A4A49" d="M219.863,270.404h-3.572v-2.962h3.572V270.404z"/>
		<path fill="#4A4A49" d="M230.964,257.89l0.16,1.792c0.439-0.64,0.982-1.137,1.626-1.49c0.646-0.354,1.367-0.533,2.165-0.533
			c1.338,0,2.381,0.397,3.132,1.191c0.751,0.795,1.125,2.04,1.125,3.735v7.818h-3.585v-7.825c0-0.841-0.179-1.438-0.538-1.79
			c-0.358-0.351-0.899-0.527-1.626-0.527c-0.472,0-0.897,0.091-1.272,0.271c-0.374,0.183-0.69,0.438-0.942,0.772v9.099h-3.569
			V257.89H230.964z"/>
		<path fill="#4A4A49" d="M252.208,270.646c-1.909,0-3.434-0.578-4.575-1.734s-1.714-2.626-1.714-4.407v-0.462
			c0-1.856,0.54-3.389,1.621-4.592c1.081-1.202,2.529-1.799,4.35-1.792c1.787,0,3.172,0.509,4.157,1.527
			c0.988,1.018,1.481,2.393,1.481,4.129v1.838h-7.903l-0.024,0.069c0.066,0.821,0.356,1.497,0.876,2.027
			c0.517,0.53,1.222,0.794,2.109,0.794c0.79,0,1.448-0.074,1.97-0.225c0.522-0.15,1.093-0.388,1.714-0.711l0.966,2.085
			c-0.538,0.419-1.243,0.767-2.118,1.041C254.247,270.508,253.276,270.646,252.208,270.646z M251.89,260.261
			c-0.661,0-1.184,0.239-1.567,0.716c-0.381,0.479-0.619,1.107-0.708,1.887l0.036,0.057h4.38v-0.299c0-0.72-0.178-1.29-0.531-1.719
			C253.144,260.476,252.608,260.261,251.89,260.261z"/>
		<path fill="#4A4A49" d="M268.363,254.826v3.064h2.226v2.371h-2.226v6.372c0,0.485,0.105,0.832,0.317,1.041
			c0.212,0.207,0.497,0.312,0.857,0.312c0.186,0,0.348-0.011,0.482-0.03c0.134-0.018,0.292-0.052,0.471-0.099l0.306,2.441
			c-0.359,0.115-0.708,0.201-1.053,0.261c-0.342,0.057-0.712,0.086-1.112,0.086c-1.233,0-2.179-0.319-2.844-0.96
			c-0.664-0.64-0.997-1.653-0.997-3.041v-6.384h-1.934v-2.371h1.934v-3.064H268.363z"/>
	</g>
	<g>
		<path fill="#DC0267" d="M27.751,231.737H17.346v10.321h-4.981v-24.837h17.126v3.838H17.346v6.841h10.405V231.737z"/>
		<path fill="#DC0267" d="M41.313,227.883l-1.825-0.052c-0.74,0-1.348,0.153-1.825,0.461c-0.478,0.306-0.842,0.738-1.092,1.296
			v12.47h-4.964v-18.457h4.623l0.222,2.729c0.432-0.966,0.992-1.72,1.68-2.261c0.688-0.54,1.48-0.81,2.379-0.81
			c0.25,0,0.48,0.021,0.691,0.06c0.21,0.04,0.423,0.089,0.639,0.145L41.313,227.883z"/>
		<path fill="#DC0267" d="M52.008,242.417c-2.661,0-4.788-0.854-6.38-2.56c-1.592-1.706-2.388-3.871-2.388-6.499v-0.683
			c0-2.739,0.753-4.997,2.26-6.771c1.507-1.774,3.528-2.655,6.064-2.645c2.491,0,4.423,0.75,5.8,2.251
			c1.376,1.501,2.064,3.531,2.064,6.089v2.713h-11.02l-0.034,0.102c0.091,1.213,0.497,2.21,1.219,2.991
			c0.723,0.781,1.703,1.173,2.943,1.173c1.103,0,2.018-0.111,2.746-0.333c0.728-0.222,1.523-0.572,2.388-1.05l1.348,3.078
			c-0.751,0.617-1.735,1.129-2.951,1.534C54.852,242.212,53.498,242.417,52.008,242.417z M51.565,227.097
			c-0.921,0-1.649,0.354-2.184,1.059c-0.535,0.705-0.864,1.632-0.989,2.78l0.051,0.086h6.107v-0.445
			c0-1.057-0.248-1.901-0.742-2.532C53.313,227.414,52.566,227.097,51.565,227.097z"/>
		<path fill="#DC0267" d="M67.565,219.182h-4.981v-3.735h4.981V219.182z M67.565,242.058h-4.981v-18.457h4.981V242.058z"/>
		<path fill="#DC0267" d="M72.956,242.058v-14.961h-2.747v-3.496h2.747v-2.048c0-2.069,0.597-3.663,1.791-4.784
			c1.194-1.12,2.871-1.681,5.032-1.681c0.42,0,0.85,0.032,1.288,0.095c0.438,0.062,0.918,0.151,1.441,0.264l-0.426,3.702
			c-0.273-0.046-0.538-0.086-0.793-0.12c-0.256-0.034-0.555-0.052-0.896-0.052c-0.807,0-1.418,0.223-1.833,0.666
			c-0.416,0.443-0.623,1.081-0.623,1.91v2.048h3.667v3.496h-3.667v14.961H72.956z"/>
		<path fill="#DC0267" d="M95.421,239.397c-0.569,0.967-1.291,1.712-2.167,2.233c-0.875,0.523-1.882,0.786-3.019,0.786
			c-1.945,0-3.466-0.623-4.563-1.868c-1.097-1.245-1.646-3.181-1.646-5.81v-11.138h4.963v11.198c0,1.346,0.227,2.312,0.683,2.898
			c0.455,0.587,1.125,0.881,2.013,0.881c0.796,0,1.478-0.129,2.047-0.386c0.568-0.256,1.035-0.634,1.398-1.136v-13.456h4.981v18.457
			h-4.247L95.421,239.397z"/>
		<path fill="#DC0267" d="M108.42,223.601l0.222,2.645c0.614-0.944,1.37-1.678,2.269-2.201c0.898-0.522,1.904-0.784,3.02-0.784
			c1.864,0,3.32,0.586,4.366,1.757c1.046,1.171,1.569,3.008,1.569,5.509v11.532h-4.998v-11.542c0-1.241-0.25-2.121-0.75-2.64
			c-0.501-0.519-1.257-0.779-2.269-0.779c-0.66,0-1.251,0.135-1.774,0.402c-0.523,0.269-0.961,0.646-1.313,1.137v13.422h-4.981
			v-18.457H108.42z"/>
		<path fill="#DC0267" d="M129.931,234.33h-1.364v7.729h-4.982v-26.611h4.982v15.097h1.228l4.281-6.942h5.767l-5.903,8.358
			l6.806,10.099h-5.714L129.931,234.33z"/>
		<path fill="#DC0267" d="M171.485,242.058h-4.964v-10.321h-10.133v10.321h-4.981v-24.837h4.981V227.9h10.133v-10.679h4.964V242.058
			z"/>
		<path fill="#DC0267" d="M186.563,242.058c-0.182-0.421-0.338-0.864-0.469-1.331c-0.131-0.466-0.225-0.943-0.282-1.433
			c-0.511,0.898-1.185,1.644-2.021,2.235c-0.836,0.591-1.833,0.887-2.993,0.887c-1.934,0-3.424-0.498-4.471-1.493
			c-1.046-0.994-1.569-2.351-1.569-4.068c0-1.807,0.697-3.21,2.09-4.205s3.427-1.492,6.099-1.492h2.781v-1.468
			c0-0.887-0.233-1.574-0.699-2.063c-0.467-0.488-1.155-0.733-2.064-0.733c-0.808,0-1.43,0.196-1.867,0.589
			c-0.438,0.393-0.657,0.936-0.657,1.629l-4.811-0.018l-0.017-0.102c-0.08-1.558,0.596-2.903,2.029-4.034s3.315-1.697,5.646-1.697
			c2.207,0,3.997,0.561,5.374,1.681c1.375,1.119,2.063,2.714,2.063,4.784v7.625c0,0.864,0.064,1.678,0.197,2.438
			c0.131,0.763,0.339,1.519,0.622,2.27H186.563z M182.009,238.732c0.875,0,1.655-0.216,2.337-0.648
			c0.683-0.433,1.143-0.933,1.382-1.502v-2.609h-2.781c-1.057,0-1.858,0.264-2.404,0.794c-0.546,0.528-0.819,1.169-0.819,1.919
			c0,0.614,0.205,1.108,0.614,1.483C180.747,238.544,181.303,238.732,182.009,238.732z"/>
		<path fill="#DC0267" d="M204.203,227.883l-1.826-0.052c-0.74,0-1.349,0.153-1.826,0.461c-0.478,0.306-0.841,0.738-1.092,1.296
			v12.47h-4.963v-18.457h4.622l0.223,2.729c0.432-0.966,0.992-1.72,1.68-2.261c0.688-0.54,1.48-0.81,2.381-0.81
			c0.249,0,0.48,0.021,0.69,0.06c0.21,0.04,0.423,0.089,0.64,0.145L204.203,227.883z"/>
		<path fill="#DC0267" d="M212.288,238.219h9.144v3.839h-15.336v-2.947l8.785-11.672h-8.512v-3.838h14.772v2.837L212.288,238.219z"
			/>
		<path fill="#DC0267" d="M238.847,242.324c-1.977,0-3.557-0.634-4.738-1.9c-1.183-1.268-1.774-2.876-1.774-4.828v-0.507
			c0-2.037,0.56-3.713,1.68-5.031c1.119-1.317,2.62-1.973,4.504-1.964c1.851,0,3.286,0.558,4.309,1.673s1.533,2.623,1.533,4.523
			v2.016h-8.186l-0.025,0.076c0.066,0.899,0.369,1.641,0.906,2.221c0.536,0.58,1.264,0.871,2.186,0.871c0.82,0,1.5-0.082,2.04-0.248
			c0.541-0.163,1.132-0.424,1.774-0.778l1.001,2.286c-0.558,0.458-1.288,0.839-2.192,1.139
			C240.96,242.172,239.954,242.324,238.847,242.324z M238.518,230.945c-0.685,0-1.226,0.262-1.622,0.785s-0.643,1.213-0.734,2.065
			l0.038,0.063h4.537v-0.329c0-0.786-0.184-1.413-0.552-1.883C239.817,231.179,239.261,230.945,238.518,230.945z"/>
		<path fill="#DC0267" d="M250.231,242.058h-3.7v-3.244h3.7V242.058z"/>
		<path fill="#DC0267" d="M259.852,237.154l0.228,1.001h0.076l0.216-0.976l4.018-13.571h3.902l-6.273,18.45h-3.801l-6.261-18.45
			h3.904L259.852,237.154z"/>
		<path fill="#DC0267" d="M270.792,242.058h-3.7v-3.244h3.7V242.058z"/>
	</g>
</g>
<path id="blasen" fill="#DC0267" d="M164.757,13.833c-28.037,0-51.832,18.648-59.87,44.298c-4.792-1.887-9.993-2.932-15.43-2.932
	c-23.693,0-42.97,19.648-42.97,43.799c0,24.15,19.276,43.797,42.97,43.797c14.055,0,26.555-6.915,34.4-17.581
	c10.996,9.554,25.285,15.349,40.9,15.349c1.3,0,2.58-0.04,3.86-0.12c0.227-0.014,0.678-0.061,0.678-0.061l-0.017-5.808
	c-0.221,0.017-0.44,0.03-0.661,0.039c-1.28,0.1-2.561,0.14-3.86,0.14c-14.469,0-27.688-5.488-37.748-14.5
	c1.848-3.379,3.268-7.031,4.189-10.882c8.452,9.167,20.454,14.91,33.757,14.91c25.528,0,46.298-21.119,46.298-47.078
	c0-25.961-20.77-47.082-46.298-47.082c-22.365,0-41.075,16.212-45.368,37.688c-2.786-2.797-5.943-5.209-9.389-7.154
	c7.055-23.697,28.841-41.011,54.559-41.011c31.42,0,56.97,25.82,56.97,57.56c0,27.55-19.26,50.64-44.899,56.25
	c-0.229,0.047-0.687,0.142-0.687,0.142l-0.003,5.925c0,0,0.46-0.089,0.689-0.136c28.87-5.69,50.72-31.41,50.72-62.18
	C227.547,42.263,199.377,13.833,164.757,13.833z M89.458,141.649c-23.062,0-41.824-19.133-41.824-42.652
	c0-23.519,18.762-42.653,41.824-42.653c5.326,0,10.417,1.031,15.105,2.891c-1.673,5.701-2.586,11.728-2.586,17.968
	c0,18.766,8.13,35.643,21.015,47.254C115.36,134.884,103.169,141.649,89.458,141.649z M164.956,31.183
	c24.943,0,45.235,20.644,45.235,46.019c0,25.373-20.292,46.016-45.235,46.016c-13.253,0-25.193-5.828-33.473-15.097
	c0.615-2.944,0.944-5.995,0.944-9.124c0-11.72-4.548-22.37-11.928-30.238C124.409,47.404,142.849,31.183,164.956,31.183z
	 M120.25,70.169c6.844,7.597,11.031,17.722,11.031,28.828c0,2.737-0.264,5.412-0.75,8.007c-6.733-8.036-10.81-18.441-10.81-29.802
	C119.722,74.812,119.903,72.463,120.25,70.169z M119.342,69.199c-0.44,2.603-0.683,5.274-0.683,8.003
	c0,11.923,4.39,22.819,11.602,31.123c-0.867,3.944-2.263,7.687-4.122,11.138c-11.275-10.522-18.353-25.57-18.353-42.26
	c0-5.337,0.738-10.501,2.09-15.41C113.373,63.796,116.558,66.295,119.342,69.199z"/>
<polygon id="pfeil2" fill="#FAB313" points="68.535,84.02 50.945,84.02 50.945,92.357 68.535,92.357 59.74,100.698 70.735,100.698 
	83.931,88.19 70.735,75.683 59.74,75.683 "/>
<polygon id="pfeil1" fill="#FAB313" points="111.699,70.267 129.493,88.681 145.311,88.681 133.448,76.404 159.149,76.404 
	159.149,64.128 133.448,64.128 145.311,51.852 129.493,51.852 "/>
<path id="Brocken" fill="#878787" d="M221.659,187.668l-0.494-13.847h-1.73c0.647-0.572,1.066-1.41,1.066-2.357
	c0-1.725-1.357-3.12-3.029-3.12s-3.029,1.396-3.029,3.12c0,0.947,0.419,1.785,1.066,2.357h-1.752l-0.461,13.391
	c-8.982-0.442-18.125-0.727-27.387-0.851l-0.214-0.309l-7.26-10.45h7.304c0.537,0,0.974-0.416,0.974-0.938v-1.363
	c0-0.519-0.437-0.936-0.974-0.936h-8.915v-5.427h5.359c0.385,0,0.697-0.33,0.697-0.743v-1.081c0-0.411-0.312-0.741-0.697-0.741
	h-5.359v-5.547h3.967c0.328,0,0.596-0.329,0.596-0.742v-1.081c0-0.41-0.268-0.742-0.596-0.742h-3.967v-4.535h9.062
	c0.537,0,0.973-0.415,0.973-0.938v-1.361c0-0.52-0.436-0.936-0.973-0.936h-9.059v-22.1h-0.064c0.036-0.069,0.061-0.144,0.061-0.227
	v-11.725c0-0.281-0.231-0.507-0.515-0.507h-1.105v-12.716v-0.017v-7.937c0-0.157-0.127-0.284-0.283-0.284h-0.611v-9.688v-0.177
	V71.522v-0.706v-0.313c0-0.753-0.603-1.36-1.349-1.36h-0.467c-0.747,0-1.347,0.607-1.347,1.36v0.313v0.706v11.611v0.16v9.688h-0.612
	c-0.156,0-0.283,0.127-0.283,0.284v7.954c0,0.014,0.013,0.022,0.015,0.036h-0.015v12.681h-1.121c-0.288,0-0.516,0.226-0.516,0.507
	v11.725c0,0.066,0.015,0.128,0.038,0.187h-0.035v22.14h-8.932c-0.545,0-0.977,0.416-0.977,0.936v1.361
	c0,0.522,0.432,0.938,0.977,0.938h8.929v4.535h-3.835c-0.333,0-0.598,0.332-0.598,0.742v1.081c0,0.413,0.265,0.742,0.598,0.742
	h3.835v5.547h-5.226c-0.392,0-0.701,0.33-0.701,0.741v1.081c0,0.413,0.31,0.743,0.701,0.743h5.226v5.427h-9.075
	c-0.545,0-0.979,0.417-0.979,0.936v1.363c0,0.521,0.434,0.938,0.979,0.938h7.493l-7.249,10.439l-0.279,0.4
	c-1.908,0.037-3.816,0.072-5.731,0.122c-1.313,0.021-2.626,0.065-3.936,0.108c-3.047,0.079-6.094,0.192-9.148,0.318
	c-1.424,0.059-2.79,0.117-4.123,0.177v-10.008h-4.989c0.01-0.131,0.038-0.257,0.038-0.391c0-2.844-2.238-5.146-4.999-5.146
	c-2.758,0-4.995,2.302-4.995,5.146c0,0.134,0.028,0.26,0.038,0.391h-4.991v11.163c-37.273,2.606-73.301,7.684-104.646,14.796
	l0.751,3.304c33.453-7.574,72.265-12.836,112.224-15.234l0.444-0.029l3.817-0.212l0.103-0.005c3.532-0.205,7.295-0.383,11.468-0.552
	c3.867-0.163,7.71-0.298,11.556-0.388c1.311-0.041,2.622-0.086,3.923-0.104c40.568-0.935,79.774,1.136,114.24,6.033l0.48-3.355
	C255.434,190.356,238.873,188.716,221.659,187.668z M171.951,83.293h1.554v9.688h-1.554V83.293z M171.375,101.502h2.705v12.433
	h-2.705V101.502z M170.057,126.673h5.32v21.82h-5.32V126.673z M163.399,186.377l0.271-0.392l6.383-9.169l0.839-1.214h3.677
	l0.834,1.214l6.381,9.181l0.227,0.325C175.851,186.271,169.645,186.288,163.399,186.377z"/>
<g id="Akzente">
	<path fill="#DC0267" d="M172.96,69.143h-0.467c-0.747,0-1.347,0.607-1.347,1.36v0.313v0.706v11.771h3.162V71.522v-0.706v-0.313
		C174.309,69.75,173.707,69.143,172.96,69.143z"/>
	<path fill="#DC0267" d="M174.92,92.981h-4.386c-0.156,0-0.283,0.127-0.283,0.284v7.205v0.749v0.284h0.283h4.386h0.283v-0.284
		v-0.749v-7.205C175.204,93.108,175.077,92.981,174.92,92.981z"/>
	<path fill="#DC0267" d="M176.309,113.935h-7.179c-0.288,0-0.516,0.226-0.516,0.507v11.053v0.671v0.507h0.516h7.179h0.515v-0.507
		v-0.671v-11.053C176.824,114.161,176.592,113.935,176.309,113.935z"/>
</g>
</svg>
