<?xml version="1.0" encoding="UTF-8" standalone="no"?>
<svg
   xmlns:dc="http://purl.org/dc/elements/1.1/"
   xmlns:cc="http://creativecommons.org/ns#"
   xmlns:rdf="http://www.w3.org/1999/02/22-rdf-syntax-ns#"
   xmlns:svg="http://www.w3.org/2000/svg"
   xmlns="http://www.w3.org/2000/svg"
   xmlns:sodipodi="http://sodipodi.sourceforge.net/DTD/sodipodi-0.dtd"
   xmlns:inkscape="http://www.inkscape.org/namespaces/inkscape"
   version="1.2"
   width="148mm"
   height="105mm"
   viewBox="0 0 524.40944 372.04724"
   preserveAspectRatio="none"
   id="svg3356"
   inkscape:version="0.91 r13725"
   sodipodi:docname="Heckscheibe Entwurf Final.svg"
   inkscape:export-filename="D:\Dropbox\Dokumente\Freifunk Harz\Logo\Heckscheibe\Heckscheibe Sample.png"
   inkscape:export-xdpi="90"
   inkscape:export-ydpi="90">
  <metadata
     id="metadata3404">
    <rdf:RDF>
      <cc:Work
         rdf:about="">
        <dc:format>image/svg+xml</dc:format>
        <dc:type
           rdf:resource="http://purl.org/dc/dcmitype/StillImage" />
        <dc:title></dc:title>
      </cc:Work>
    </rdf:RDF>
  </metadata>
  <defs
     id="defs3402" />
  <sodipodi:namedview
     pagecolor="#ffffff"
     bordercolor="#666666"
     borderopacity="1"
     objecttolerance="10"
     gridtolerance="10"
     guidetolerance="10"
     inkscape:pageopacity="0"
     inkscape:pageshadow="2"
     inkscape:window-width="1920"
     inkscape:window-height="1027"
     id="namedview3400"
     showgrid="false"
     showguides="true"
     inkscape:guide-bbox="true"
     inkscape:zoom="2"
     inkscape:cx="207.61797"
     inkscape:cy="198.12052"
     inkscape:window-x="-8"
     inkscape:window-y="-8"
     inkscape:window-maximized="1"
     inkscape:current-layer="svg3356"
     units="mm" />
  <!-- Designed by Monic Meisel and hand-coded as SVG by Alina Friedrichsen -->
  <g
     inkscape:groupmode="layer"
     id="layer1"
     inkscape:label="Ebene 1"
     transform="translate(0,207.04725)" />
  <g
     id="g3546"
     transform="translate(249.51201,72.58329)">
    <g
       transform="translate(-2.9412658,-3.3495283)"
       id="g3362">
      <circle
         style="fill:none;stroke:#de2c68;stroke-width:1.14544892;stroke-miterlimit:4;stroke-dasharray:none;stroke-opacity:1"
         id="circle3364"
         stroke-miterlimit="4"
         transform="matrix(1.477616,0,0,1.5065066,-3.122124,-2.4350016)"
         r="22"
         cy="54"
         cx="36" />
      <circle
         style="fill:#000000;fill-opacity:0;stroke:#de2c68;stroke-width:1.06239557;stroke-miterlimit:4;stroke-dasharray:none;stroke-opacity:1"
         id="circle3366"
         stroke-miterlimit="4"
         transform="matrix(1.5950476,0,0,1.6223254,-10.072136,-9.1778182)"
         r="22"
         cy="44"
         cx="74" />
      <circle
         style="fill:none;stroke:#de2c68;stroke-width:5.81192684;stroke-miterlimit:4;stroke-dasharray:none;stroke-opacity:1"
         id="circle3368"
         stroke-miterlimit="4"
         transform="matrix(1.5831269,0,0,1.5986441,-9.3397104,-8.1360194)"
         r="29"
         cy="44"
         cx="74" />
      <polygon
         style="fill:#ffcc33;fill-opacity:1"
         id="polygon3370"
         transform="matrix(1.4493674,0,0,1.3737988,-2.70016,2.5042672)"
         points="30,52 26,56 31,56 37,50 31,44 26,44 30,48 22,48 22,52 " />
      <polygon
         style="fill:#ffcc33;fill-opacity:1"
         id="polygon3372"
         transform="matrix(1.5159598,0,0,1.568926,-29.894574,-21.558961)"
         points="75,53 88,53 88,47 75,47 81,41 73,41 64,50 73,59 81,59 " />
    </g>
    <g
       transform="translate(-416.09097,-445.13917)"
       inkscape:label="Ebene 1"
       id="layer1-9-2">
      <path
         sodipodi:nodetypes="ccccccccccccc"
         style="fill:none;fill-rule:evenodd;stroke:#000000;stroke-width:1px;stroke-linecap:butt;stroke-linejoin:miter;stroke-opacity:1"
         d="m 416.0587,587.40999 c 9.10897,-1.25196 14.81506,-2.7582 20.36987,-5.04779 L 445,580.21935 l 8.92857,-1.90859 11.42857,-1.66284 13.92858,-1.78572 19.17547,-1.23104 13.68167,-0.19753 11.78571,0.35715 5.89918,-0.73839 13.38654,-1.76161 15.35714,0.71428 19.93915,0.81305"
         id="path3498-1-8"
         inkscape:connector-curvature="0" />
      <path
         id="rect3542-0-9"
         d="m 480.70633,566.98389 14.14212,0 0,7.31294 -14.14212,0 z"
         style="fill:#000000"
         inkscape:connector-curvature="0" />
      <path
         id="path3576-9-5"
         d="m 490.91835,566.69983 a 3.5513175,3.7249374 0 0 1 -3.55132,3.72494 3.5513175,3.7249374 0 0 1 -3.55131,-3.72494 3.5513175,3.7249374 0 0 1 3.55131,-3.72494 3.5513175,3.7249374 0 0 1 3.55132,3.72494 z"
         style="fill:#000000"
         inkscape:connector-curvature="0" />
      <path
         id="rect5406-5"
         d="m 528.84576,571.23676 3.73694,0 0,1.82055 -3.73694,0 z"
         inkscape:connector-curvature="0" />
      <path
         id="rect5402-0"
         d="m 503.96808,570.90955 26.01759,0 0,2.60853 -26.01759,0 z"
         inkscape:connector-curvature="0" />
      <path
         id="rect3590-1-9"
         d="m 503.97116,568.70148 46.2074,0 0,2.3444 -46.2074,0 z"
         style="fill:#000000"
         inkscape:connector-curvature="0" />
      <path
         id="rect3610-2-9"
         d="m 545.16669,567.48895 4.67195,0 0,2.33598 -4.67195,0 z"
         style="fill:#000000"
         inkscape:connector-curvature="0" />
      <path
         id="rect3612-9-8"
         d="m 539.48462,565.97375 4.48255,0 0,4.67196 -4.48255,0 z"
         style="fill:#000000"
         inkscape:connector-curvature="0" />
      <path
         id="rect3616-4-8"
         d="m 564.375,568.07648 5.9375,0 0,4.28571 -5.9375,0 z"
         style="fill:#000000"
         inkscape:connector-curvature="0" />
      <path
         id="rect3618-5-0"
         d="m 565.08929,564.54968 4.46429,0 0,5.13393 -4.46429,0 z"
         style="fill:#000000"
         inkscape:connector-curvature="0" />
      <path
         id="rect3663-8-4"
         d="m 515.50807,550.76624 11.96429,0 c 0.24732,0 0.44643,0.1991 0.44643,0.44642 l 0,0.44643 c 0,0.24732 -0.19911,0.44643 -0.44643,0.44643 l -11.96429,0 c -0.24732,0 -0.44642,-0.19911 -0.44642,-0.44643 l 0,-0.44643 c 0,-0.24732 0.1991,-0.44642 0.44642,-0.44642 z"
         style="fill:#999999"
         inkscape:connector-curvature="0" />
      <path
         id="rect3672-9-3"
         d="m 515.59194,559.39343 11.78571,0 c 0.24732,0 0.44643,0.19911 0.44643,0.44643 l 0,0.625 c 0,0.24732 -0.19911,0.44643 -0.44643,0.44643 l -11.78571,0 c -0.24732,0 -0.44643,-0.19911 -0.44643,-0.44643 l 0,-0.625 c 0,-0.24732 0.19911,-0.44643 0.44643,-0.44643 z"
         style="fill:#999999"
         inkscape:connector-curvature="0" />
      <path
         id="rect3674-4-4"
         d="m 520.17858,551.55865 c 0.0495,0 0.0893,0.0398 0.0893,0.0893 0,0.0495 -0.0398,0.0893 -0.0893,0.0893 -0.0495,0 -0.0893,-0.0398 -0.0893,-0.0893 0,-0.0495 0.0398,-0.0893 0.0893,-0.0893 z"
         style="fill:#999999"
         inkscape:connector-curvature="0" />
      <path
         id="rect3676-0-7"
         d="m 519.43664,551.38007 4.10714,0 c 0.0495,0 0.0893,0.0398 0.0893,0.0893 l 0,13.30357 c 0,0.0495 -0.0398,0.0893 -0.0893,0.0893 l -4.10714,0 c -0.0495,0 -0.0893,-0.0398 -0.0893,-0.0893 l 0,-13.30357 c 0,-0.0495 0.0398,-0.0893 0.0893,-0.0893 z"
         style="fill:#999999"
         inkscape:connector-curvature="0" />
      <path
         id="rect3678-2-7"
         d="m 518.17519,555.13007 6.608,0 c 0.24708,0 0.446,0.19891 0.446,0.446 l 0,0.80442 c 0,0.24709 -0.19892,0.446 -0.446,0.446 l -6.608,0 c -0.24709,0 -0.446,-0.19891 -0.446,-0.446 l 0,-0.80442 c 0,-0.24709 0.19891,-0.446 0.446,-0.446 z"
         style="fill:#999999"
         inkscape:connector-curvature="0" />
      <path
         id="rect3680-6-5"
         d="m 515.59466,563.96936 11.79857,0 c 0.24376,0 0.44,0.19624 0.44,0.44 l 0,0.63786 c 0,0.24376 -0.19624,0.44 -0.44,0.44 l -11.79857,0 c -0.24376,0 -0.44,-0.19624 -0.44,-0.44 l 0,-0.63786 c 0,-0.24376 0.19624,-0.44 0.44,-0.44 z"
         style="fill:#999999"
         inkscape:connector-curvature="0" />
      <path
         id="rect3682-5-7"
         d="m 508.47234,566.20142 25.983,0 c 0.24708,0 0.446,0.17919 0.446,0.40178 0,0.22259 -0.19892,0.40179 -0.446,0.40179 l -25.983,0 c -0.24709,0 -0.446,-0.1792 -0.446,-0.40179 0,-0.22259 0.19891,-0.40178 0.446,-0.40178 z"
         style="fill:#999999"
         inkscape:connector-curvature="0" />
      <path
         style="fill:none;fill-rule:evenodd;stroke:#999999;stroke-width:1px;stroke-linecap:butt;stroke-linejoin:miter;stroke-opacity:1"
         d="m 521.51786,564.41577 c 0,0 -0.17857,0 0,0 z"
         id="path3694-8-3"
         inkscape:connector-curvature="0" />
      <path
         id="rect3712-0-8"
         d="m 519.49712,564.90045 3.54637,0 c 0.0495,0 0.0893,0.0398 0.0893,0.0893 l 0,1.39979 c 0,0.0495 -0.0398,0.0893 -0.0893,0.0893 l -3.54637,0 c -0.0495,0 -0.0893,-0.0398 -0.0893,-0.0893 l 0,-1.39979 c 0,-0.0495 0.0398,-0.0893 0.0893,-0.0893 z"
         style="fill:#999999;fill-opacity:1"
         inkscape:connector-curvature="0" />
      <rect
         style="fill:#000000;fill-opacity:1"
         id="rect3716-6-8"
         width="0"
         height="0"
         x="524.14288"
         y="558.0188"
         ry="0" />
      <path
         id="rect3752-3-6"
         d="m 520.58771,512.4129 1.77064,0 0,5.61164 -1.77064,0 z"
         style="fill:#ffffff;fill-opacity:1;stroke:#000000;stroke-width:0.193;stroke-miterlimit:4;stroke-dasharray:none;stroke-opacity:1"
         inkscape:connector-curvature="0" />
      <path
         id="rect3766-5-9"
         d="m 520.53571,505.04077 1.875,0 0,7.32143 -1.875,0 z"
         style="fill:#ff0000;fill-opacity:1"
         inkscape:connector-curvature="0" />
      <path
         id="rect3771-0-7"
         d="m 520.2323,518.04309 2.5,0 0,5 -2.5,0 z"
         style="fill:#ff0000;fill-opacity:1"
         inkscape:connector-curvature="0" />
      <path
         id="rect3785-3-2"
         d="m 520.21649,523.07397 2.50993,0 0,7.19662 -2.50993,0 z"
         style="fill:#ffffff;fill-opacity:1;stroke:#000000;stroke-width:0.20100001;stroke-miterlimit:4;stroke-dasharray:none;stroke-opacity:1"
         inkscape:connector-curvature="0" />
      <path
         id="rect3793-2-0"
         d="m 519.41223,530.33649 4.13815,0 c 0.16454,0 0.297,0.13246 0.297,0.297 l 0,6.878 c 0,0.16453 -0.13246,0.297 -0.297,0.297 l -4.13815,0 c -0.16453,0 -0.297,-0.13247 -0.297,-0.297 l 0,-6.878 c 0,-0.16454 0.13247,-0.297 0.297,-0.297 z"
         style="fill:#ff0000;fill-opacity:1"
         inkscape:connector-curvature="0" />
      <path
         id="rect3795-2-8"
         d="m 519.18011,537.74603 4.53392,0 0,13.02192 -4.53392,0 z"
         style="fill:#ffffff;fill-opacity:1;stroke:#000000;stroke-width:0.199;stroke-miterlimit:4;stroke-dasharray:none;stroke-opacity:1"
         inkscape:connector-curvature="0" />
      <path
         id="rect3799-1-0"
         d="m 520.53571,505.21936 1.875,0 0,1.51786 -1.875,0 z"
         style="fill:#ff0000;fill-opacity:1"
         inkscape:connector-curvature="0" />
      <path
         id="rect3804-4-6"
         d="m 521.33571,504.86221 0.275,0 c 0.4432,0 0.8,0.3568 0.8,0.8 l 0,0.711 c 0,0.4432 -0.3568,0.8 -0.8,0.8 l -0.275,0 c -0.4432,0 -0.8,-0.3568 -0.8,-0.8 l 0,-0.711 c 0,-0.4432 0.3568,-0.8 0.8,-0.8 z"
         style="fill:#ff0000;fill-opacity:1"
         inkscape:connector-curvature="0" />
      <path
         id="rect3806-5-1"
         d="m 521.33571,504.05862 0.275,0 c 0.4432,0 0.8,0.3568 0.8,0.8 l 0,0.59656 c 0,0.4432 -0.3568,0.8 -0.8,0.8 l -0.275,0 c -0.4432,0 -0.8,-0.3568 -0.8,-0.8 l 0,-0.59656 c 0,-0.4432 0.3568,-0.8 0.8,-0.8 z"
         style="fill:#ff0000;fill-opacity:1"
         inkscape:connector-curvature="0" />
      <path
         id="rect3826-6-5"
         d="m 547.5658,570.23535 2.62008,0 0,1.4521 -2.62008,0 z"
         style="fill:#000000;fill-opacity:1"
         inkscape:connector-curvature="0" />
      <path
         id="rect3828-1-1"
         d="m 522.78552,565.40552 1.01016,0 0,1.26269 -1.01016,0 z"
         style="fill:#999999;fill-opacity:1"
         inkscape:connector-curvature="0" />
      <path
         style="fill:#000000;fill-opacity:1"
         d="m 515.4822,571.03423 c 0.048,-0.007 0.11901,-0.007 0.15783,4.3e-4 0.0388,0.007 -4.3e-4,0.0134 -0.0872,0.0132 -0.0868,-2.4e-4 -0.11858,-0.006 -0.0706,-0.0136 z"
         id="path3848-8-3"
         inkscape:connector-curvature="0" />
      <path
         style="fill:#b3b3b3;fill-rule:evenodd;stroke:#999999;stroke-width:1.11121094px;stroke-linecap:butt;stroke-linejoin:miter;stroke-opacity:1"
         d="m 520.45871,564.62216 -6.74001,9.03745"
         id="path3692-8-4"
         inkscape:connector-curvature="0" />
      <path
         style="fill:none;fill-rule:evenodd;stroke:#999999;stroke-width:1.03227329px;stroke-linecap:butt;stroke-linejoin:miter;stroke-opacity:1"
         d="m 520.62673,564.96732 5.36108,8.85118"
         id="path3700-0-7"
         inkscape:connector-curvature="0" />
      <path
         style="fill:#b3b3b3;fill-rule:evenodd;stroke:#999999;stroke-width:1.11209488px;stroke-linecap:butt;stroke-linejoin:miter;stroke-opacity:1"
         d="m 522.82283,564.67182 -6.73941,9.05265"
         id="path3692-0-5"
         inkscape:connector-curvature="0" />
      <path
         inkscape:connector-curvature="0"
         id="path5392-4"
         d="m 578.46317,572.80746 3.93271,0.40575 2.28686,0.45648 1.45527,-0.0845"
         style="fill:none;fill-rule:evenodd;stroke:#000000;stroke-width:1.01037967px;stroke-linecap:butt;stroke-linejoin:miter;stroke-opacity:1" />
      <path
         id="path5404-5"
         d="m 541.87817,571.29669 a 6.3794556,1.1324742 0 0 1 -6.37945,1.13248 6.3794556,1.1324742 0 0 1 -6.37946,-1.13248 6.3794556,1.1324742 0 0 1 6.37946,-1.13247 6.3794556,1.1324742 0 0 1 6.37945,1.13247 z"
         inkscape:connector-curvature="0" />
      <path
         style="fill:none;fill-rule:evenodd;stroke:#999999;stroke-width:1.12951386px;stroke-linecap:butt;stroke-linejoin:miter;stroke-opacity:1"
         d="m 522.69336,564.00141 6.01482,9.44549"
         id="path3700-05-6"
         inkscape:connector-curvature="0" />
      <g
         id="text5408-8"
         style="font-style:normal;font-variant:normal;font-weight:normal;font-stretch:normal;font-size:20.18949699px;line-height:125%;font-family:Courier;-inkscape-font-specification:Courier;letter-spacing:0px;word-spacing:0px;fill:#de2c68;fill-opacity:1;stroke:none;stroke-width:1px;stroke-linecap:butt;stroke-linejoin:miter;stroke-opacity:1"
         transform="matrix(1.1509026,0,0,1.3016692,-330.97606,-154.82484)">
        <path
           id="path3390-4"
           d="m 486.59764,553.14591 8.45829,0 0,1.67589 -6.46694,0 0,4.33759 5.83602,0 0,1.67588 -5.83602,0 0,7.02887 -1.99135,0 0,-14.71823 z"
           inkscape:connector-curvature="0" />
        <path
           id="path3392-9"
           d="m 503.09033,558.51861 q -0.3056,-0.17745 -0.67036,-0.25632 -0.35489,-0.0887 -0.78865,-0.0887 -1.53787,0 -2.36596,1.00553 -0.81822,0.99568 -0.81822,2.86873 l 0,5.81631 -1.82376,0 0,-11.04114 1.82376,0 0,1.71532 q 0.57177,-1.00553 1.48858,-1.48858 0.91681,-0.49291 2.22794,-0.49291 0.18731,0 0.41404,0.0296 0.22674,0.0197 0.50277,0.069 l 0.01,1.86319 z"
           inkscape:connector-curvature="0" />
        <path
           id="path3394-5"
           d="m 514.02302,561.8901 0,0.88723 -8.34,0 q 0.1183,1.87305 1.12383,2.85886 1.01539,0.97596 2.81943,0.97596 1.04497,0 2.02092,-0.25631 0.98582,-0.25631 1.95192,-0.76894 l 0,1.71532 q -0.97596,0.41404 -2.00121,0.63092 -1.02524,0.21688 -2.08007,0.21688 -2.64198,0 -4.18971,-1.53787 -1.53787,-1.53787 -1.53787,-4.16014 0,-2.71099 1.459,-4.29815 1.46887,-1.59703 3.95312,-1.59703 2.22794,0 3.51936,1.43929 1.30128,1.42944 1.30128,3.89398 z m -1.8139,-0.53235 q -0.0197,-1.48858 -0.83794,-2.37581 -0.80837,-0.88723 -2.14908,-0.88723 -1.51816,0 -2.43497,0.85766 -0.90695,0.85765 -1.04496,2.41524 l 6.46695,-0.01 z"
           inkscape:connector-curvature="0" />
        <path
           id="path3396-2"
           d="m 517.00018,556.823 1.8139,0 0,11.04114 -1.8139,0 0,-11.04114 z m 0,-4.29815 1.8139,0 0,2.29695 -1.8139,0 0,-2.29695 z"
           inkscape:connector-curvature="0" />
        <path
           id="path3398-5"
           d="m 528.18919,552.52485 0,1.5083 -1.73504,0 q -0.97595,0 -1.36042,0.39432 -0.37461,0.39433 -0.37461,1.41958 l 0,0.97595 2.98702,0 0,1.40972 -2.98702,0 0,9.63142 -1.82376,0 0,-9.63142 -1.73504,0 0,-1.40972 1.73504,0 0,-0.76893 q 0,-1.84348 0.85766,-2.68142 0.85766,-0.8478 2.72085,-0.8478 l 1.71532,0 z"
           inkscape:connector-curvature="0" />
        <path
           id="path3400-9"
           d="m 529.51018,563.50683 0,-6.68383 1.8139,0 0,6.61483 q 0,1.56744 0.61121,2.35609 0.6112,0.7788 1.83361,0.7788 1.46887,0 2.31667,-0.93653 0.85766,-0.93652 0.85766,-2.55326 l 0,-6.25993 1.8139,0 0,11.04114 -1.8139,0 0,-1.69561 q -0.6605,1.00554 -1.53788,1.49844 -0.86751,0.48305 -2.02092,0.48305 -1.90262,0 -2.88844,-1.18298 -0.98581,-1.18297 -0.98581,-3.46021 z m 4.56432,-6.95 0,0 z"
           inkscape:connector-curvature="0" />
        <path
           id="path3402-1"
           d="m 551.69102,561.20002 0,6.66412 -1.8139,0 0,-6.60497 q 0,-1.56744 -0.6112,-2.34624 -0.61121,-0.77879 -1.83362,-0.77879 -1.46886,0 -2.31667,0.93652 -0.8478,0.93653 -0.8478,2.55327 l 0,6.24021 -1.82376,0 0,-11.04114 1.82376,0 0,1.71532 q 0.65064,-0.99567 1.52802,-1.48858 0.88723,-0.49291 2.04063,-0.49291 1.90263,0 2.87859,1.18298 0.97595,1.17312 0.97595,3.46021 z"
           inkscape:connector-curvature="0" />
        <path
           id="path3404-6"
           d="m 555.25967,552.52485 1.82376,0 0,9.05964 5.41213,-4.76149 2.31666,0 -5.85574,5.16568 6.1022,5.87546 -2.36596,0 -5.60929,-5.39241 0,5.39241 -1.82376,0 0,-15.33929 z"
           inkscape:connector-curvature="0" />
        <path
           id="path3406-2"
           d="m 573.54654,553.14591 1.99135,0 0,6.03319 7.23589,0 0,-6.03319 1.99134,0 0,14.71823 -1.99134,0 0,-7.00915 -7.23589,0 0,7.00915 -1.99135,0 0,-14.71823 z"
           inkscape:connector-curvature="0" />
        <path
           id="path3408-6"
           d="m 593.66704,562.314 q -2.19837,0 -3.04617,0.50276 -0.8478,0.50277 -0.8478,1.71532 0,0.9661 0.63092,1.53787 0.64078,0.56192 1.73503,0.56192 1.5083,0 2.41525,-1.06468 0.91681,-1.07454 0.91681,-2.84901 l 0,-0.40418 -1.80404,0 z m 3.61794,-0.74922 0,6.29936 -1.8139,0 0,-1.67589 q -0.62107,1.00553 -1.54773,1.48858 -0.92667,0.47319 -2.26738,0.47319 -1.6956,0 -2.70113,-0.94638 -0.99567,-0.95624 -0.99567,-2.55326 0,-1.86319 1.24212,-2.80958 1.25199,-0.94638 3.72638,-0.94638 l 2.54341,0 0,-0.17745 q 0,-1.25198 -0.82809,-1.93219 -0.81822,-0.69007 -2.3068,-0.69007 -0.94639,0 -1.84348,0.22673 -0.89709,0.22674 -1.72518,0.68022 l 0,-1.67589 q 0.99568,-0.38447 1.9322,-0.57177 0.93653,-0.19717 1.82376,-0.19717 2.39553,0 3.57851,1.24213 1.18298,1.24213 1.18298,3.76582 z"
           inkscape:connector-curvature="0" />
        <path
           id="path3410-2"
           d="m 607.42902,558.51861 q -0.3056,-0.17745 -0.67035,-0.25632 -0.3549,-0.0887 -0.78866,-0.0887 -1.53787,0 -2.36595,1.00553 -0.81823,0.99568 -0.81823,2.86873 l 0,5.81631 -1.82376,0 0,-11.04114 1.82376,0 0,1.71532 q 0.57177,-1.00553 1.48858,-1.48858 0.91681,-0.49291 2.22794,-0.49291 0.18731,0 0.41405,0.0296 0.22673,0.0197 0.50276,0.069 l 0.01,1.86319 z"
           inkscape:connector-curvature="0" />
        <path
           id="path3412-1"
           d="m 608.5627,556.823 8.61603,0 0,1.65617 -6.82184,7.93582 6.82184,0 0,1.44915 -8.86248,0 0,-1.65617 6.82184,-7.93582 -6.57539,0 0,-1.44915 z"
           inkscape:connector-curvature="0" />
      </g>
    </g>
  </g>
  <text
     xml:space="preserve"
     style="font-style:normal;font-weight:normal;font-size:12.5px;line-height:0%;font-family:sans-serif;letter-spacing:0px;word-spacing:0px;fill:#ffffff;fill-opacity:1;stroke:none;stroke-width:1px;stroke-linecap:butt;stroke-linejoin:miter;stroke-opacity:1"
     x="99.5"
     y="96.047241"
     id="text3606"
     sodipodi:linespacing="0%"><tspan
       sodipodi:role="line"
       id="tspan3608"
       x="99.5"
       y="96.047241">Dein freies WLAN-Netz</tspan></text>
  <text
     xml:space="preserve"
     style="font-style:normal;font-weight:normal;font-size:12.5px;line-height:0%;font-family:sans-serif;letter-spacing:0px;word-spacing:0px;fill:#ffffff;fill-opacity:1;stroke:none;stroke-width:1px;stroke-linecap:butt;stroke-linejoin:miter;stroke-opacity:1"
     x="100"
     y="112.54724"
     id="text3614"
     sodipodi:linespacing="0%"><tspan
       sodipodi:role="line"
       id="tspan3616"
       x="100"
       y="112.54724">aus der Region</tspan></text>
</svg>
