<?xml version="1.0" encoding="UTF-8" standalone="no"?>
<svg
   xmlns:dc="http://purl.org/dc/elements/1.1/"
   xmlns:cc="http://creativecommons.org/ns#"
   xmlns:rdf="http://www.w3.org/1999/02/22-rdf-syntax-ns#"
   xmlns:svg="http://www.w3.org/2000/svg"
   xmlns="http://www.w3.org/2000/svg"
   xmlns:sodipodi="http://sodipodi.sourceforge.net/DTD/sodipodi-0.dtd"
   xmlns:inkscape="http://www.inkscape.org/namespaces/inkscape"
   version="1.2"
   width="170px"
   height="165px"
   viewBox="0 0 170 165"
   preserveAspectRatio="none"
   id="svg3356"
   inkscape:version="0.91 r13725"
   sodipodi:docname="FFHZ Schriftzug.svg"
   inkscape:export-filename="D:\Dropbox\Dokumente\Freifunk Harz\Logo\Freifunk-blau.png"
   inkscape:export-xdpi="90"
   inkscape:export-ydpi="90">
  <metadata
     id="metadata3404">
    <rdf:RDF>
      <cc:Work
         rdf:about="">
        <dc:format>image/svg+xml</dc:format>
        <dc:type
           rdf:resource="http://purl.org/dc/dcmitype/StillImage" />
        <dc:title></dc:title>
      </cc:Work>
    </rdf:RDF>
  </metadata>
  <defs
     id="defs3402" />
  <sodipodi:namedview
     pagecolor="#ffffff"
     bordercolor="#666666"
     borderopacity="1"
     objecttolerance="10"
     gridtolerance="10"
     guidetolerance="10"
     inkscape:pageopacity="0"
     inkscape:pageshadow="2"
     inkscape:window-width="1920"
     inkscape:window-height="1027"
     id="namedview3400"
     showgrid="false"
     showguides="true"
     inkscape:guide-bbox="true"
     inkscape:zoom="4"
     inkscape:cx="37.078882"
     inkscape:cy="79.31977"
     inkscape:window-x="-8"
     inkscape:window-y="-8"
     inkscape:window-maximized="1"
     inkscape:current-layer="text5408" />
  <!-- Designed by Monic Meisel and hand-coded as SVG by Alina Friedrichsen -->
  <g
     id="layer1-9"
     inkscape:label="Ebene 1"
     transform="translate(-416.09097,-445.13917)">
    <rect
       ry="0"
       y="558.0188"
       x="524.14288"
       height="0"
       width="0"
       id="rect3716-6"
       style="fill:#000000;fill-opacity:1" />
    <g
       transform="matrix(0.94030546,0,0,1.0634842,-15,-68.75)"
       style="font-style:normal;font-variant:normal;font-weight:normal;font-stretch:normal;font-size:20.18949699px;line-height:125%;font-family:Courier;-inkscape-font-specification:Courier;letter-spacing:0px;word-spacing:0px;fill:#ffffff;fill-opacity:1;stroke:none;stroke-width:1px;stroke-linecap:butt;stroke-linejoin:miter;stroke-opacity:1"
       id="text5408"
       inkscape:export-xdpi="2930.4617"
       inkscape:export-ydpi="2930.4617">
      <path
         d="m 486.59764,553.14591 8.45829,0 0,1.67589 -6.46694,0 0,4.33759 5.83602,0 0,1.67588 -5.83602,0 0,7.02887 -1.99135,0 0,-14.71823 z"
         style="fill:#ffffff"
         id="path3390"
         inkscape:connector-curvature="0" />
      <path
         d="m 503.09033,558.51861 q -0.3056,-0.17745 -0.67036,-0.25632 -0.35489,-0.0887 -0.78865,-0.0887 -1.53787,0 -2.36596,1.00553 -0.81822,0.99568 -0.81822,2.86873 l 0,5.81631 -1.82376,0 0,-11.04114 1.82376,0 0,1.71532 q 0.57177,-1.00553 1.48858,-1.48858 0.91681,-0.49291 2.22794,-0.49291 0.18731,0 0.41404,0.0296 0.22674,0.0197 0.50277,0.069 l 0.01,1.86319 z"
         style="fill:#ffffff"
         id="path3392"
         inkscape:connector-curvature="0" />
      <path
         d="m 514.02302,561.8901 0,0.88723 -8.34,0 q 0.1183,1.87305 1.12383,2.85886 1.01539,0.97596 2.81943,0.97596 1.04497,0 2.02092,-0.25631 0.98582,-0.25631 1.95192,-0.76894 l 0,1.71532 q -0.97596,0.41404 -2.00121,0.63092 -1.02524,0.21688 -2.08007,0.21688 -2.64198,0 -4.18971,-1.53787 -1.53787,-1.53787 -1.53787,-4.16014 0,-2.71099 1.459,-4.29815 1.46887,-1.59703 3.95312,-1.59703 2.22794,0 3.51936,1.43929 1.30128,1.42944 1.30128,3.89398 z m -1.8139,-0.53235 q -0.0197,-1.48858 -0.83794,-2.37581 -0.80837,-0.88723 -2.14908,-0.88723 -1.51816,0 -2.43497,0.85766 -0.90695,0.85765 -1.04496,2.41524 l 6.46695,-0.01 z"
         style="fill:#ffffff"
         id="path3394"
         inkscape:connector-curvature="0" />
      <path
         d="m 517.00018,556.823 1.8139,0 0,11.04114 -1.8139,0 0,-11.04114 z m 0,-4.29815 1.8139,0 0,2.29695 -1.8139,0 0,-2.29695 z"
         style="fill:#ffffff"
         id="path3396"
         inkscape:connector-curvature="0" />
      <path
         d="m 528.18919,552.52485 0,1.5083 -1.73504,0 q -0.97595,0 -1.36042,0.39432 -0.37461,0.39433 -0.37461,1.41958 l 0,0.97595 2.98702,0 0,1.40972 -2.98702,0 0,9.63142 -1.82376,0 0,-9.63142 -1.73504,0 0,-1.40972 1.73504,0 0,-0.76893 q 0,-1.84348 0.85766,-2.68142 0.85766,-0.8478 2.72085,-0.8478 l 1.71532,0 z"
         style="fill:#ffffff"
         id="path3398"
         inkscape:connector-curvature="0" />
      <path
         d="m 529.51018,563.50683 0,-6.68383 1.8139,0 0,6.61483 q 0,1.56744 0.61121,2.35609 0.6112,0.7788 1.83361,0.7788 1.46887,0 2.31667,-0.93653 0.85766,-0.93652 0.85766,-2.55326 l 0,-6.25993 1.8139,0 0,11.04114 -1.8139,0 0,-1.69561 q -0.6605,1.00554 -1.53788,1.49844 -0.86751,0.48305 -2.02092,0.48305 -1.90262,0 -2.88844,-1.18298 -0.98581,-1.18297 -0.98581,-3.46021 z m 4.56432,-6.95 0,0 z"
         style="fill:#ffffff"
         id="path3400"
         inkscape:connector-curvature="0" />
      <path
         d="m 551.69102,561.20002 0,6.66412 -1.8139,0 0,-6.60497 q 0,-1.56744 -0.6112,-2.34624 -0.61121,-0.77879 -1.83362,-0.77879 -1.46886,0 -2.31667,0.93652 -0.8478,0.93653 -0.8478,2.55327 l 0,6.24021 -1.82376,0 0,-11.04114 1.82376,0 0,1.71532 q 0.65064,-0.99567 1.52802,-1.48858 0.88723,-0.49291 2.04063,-0.49291 1.90263,0 2.87859,1.18298 0.97595,1.17312 0.97595,3.46021 z"
         style="fill:#ffffff"
         id="path3402"
         inkscape:connector-curvature="0" />
      <path
         d="m 555.25967,552.52485 1.82376,0 0,9.05964 5.41213,-4.76149 2.31666,0 -5.85574,5.16568 6.1022,5.87546 -2.36596,0 -5.60929,-5.39241 0,5.39241 -1.82376,0 0,-15.33929 z"
         style="fill:#ffffff"
         id="path3404"
         inkscape:connector-curvature="0" />
      <path
         d="m 573.54654,553.14591 1.99135,0 0,6.03319 7.23589,0 0,-6.03319 1.99134,0 0,14.71823 -1.99134,0 0,-7.00915 -7.23589,0 0,7.00915 -1.99135,0 0,-14.71823 z"
         style="fill:#ffffff"
         id="path3406"
         inkscape:connector-curvature="0" />
      <path
         d="m 593.66704,562.314 q -2.19837,0 -3.04617,0.50276 -0.8478,0.50277 -0.8478,1.71532 0,0.9661 0.63092,1.53787 0.64078,0.56192 1.73503,0.56192 1.5083,0 2.41525,-1.06468 0.91681,-1.07454 0.91681,-2.84901 l 0,-0.40418 -1.80404,0 z m 3.61794,-0.74922 0,6.29936 -1.8139,0 0,-1.67589 q -0.62107,1.00553 -1.54773,1.48858 -0.92667,0.47319 -2.26738,0.47319 -1.6956,0 -2.70113,-0.94638 -0.99567,-0.95624 -0.99567,-2.55326 0,-1.86319 1.24212,-2.80958 1.25199,-0.94638 3.72638,-0.94638 l 2.54341,0 0,-0.17745 q 0,-1.25198 -0.82809,-1.93219 -0.81822,-0.69007 -2.3068,-0.69007 -0.94639,0 -1.84348,0.22673 -0.89709,0.22674 -1.72518,0.68022 l 0,-1.67589 q 0.99568,-0.38447 1.9322,-0.57177 0.93653,-0.19717 1.82376,-0.19717 2.39553,0 3.57851,1.24213 1.18298,1.24213 1.18298,3.76582 z"
         style="fill:#ffffff"
         id="path3408"
         inkscape:connector-curvature="0" />
      <path
         d="m 607.42902,558.51861 q -0.3056,-0.17745 -0.67035,-0.25632 -0.3549,-0.0887 -0.78866,-0.0887 -1.53787,0 -2.36595,1.00553 -0.81823,0.99568 -0.81823,2.86873 l 0,5.81631 -1.82376,0 0,-11.04114 1.82376,0 0,1.71532 q 0.57177,-1.00553 1.48858,-1.48858 0.91681,-0.49291 2.22794,-0.49291 0.18731,0 0.41405,0.0296 0.22673,0.0197 0.50276,0.069 l 0.01,1.86319 z"
         style="fill:#ffffff"
         id="path3410"
         inkscape:connector-curvature="0" />
      <path
         d="m 608.5627,556.823 8.61603,0 0,1.65617 -6.82184,7.93582 6.82184,0 0,1.44915 -8.86248,0 0,-1.65617 6.82184,-7.93582 -6.57539,0 0,-1.44915 z"
         style="fill:#ffffff"
         id="path3412"
         inkscape:connector-curvature="0" />
    </g>
  </g>
</svg>
