<?xml version="1.0" encoding="utf-8"?>
<!-- Generator: Adobe Illustrator 16.0.4, SVG Export Plug-In . SVG Version: 6.00 Build 0)  -->
<!DOCTYPE svg PUBLIC "-//W3C//DTD SVG 1.1//EN" "http://www.w3.org/Graphics/SVG/1.1/DTD/svg11.dtd">
<svg version="1.1" xmlns="http://www.w3.org/2000/svg" xmlns:xlink="http://www.w3.org/1999/xlink" x="0px" y="0px"
	 width="283.46px" height="283.46px" viewBox="0 0 283.46 283.46" enable-background="new 0 0 283.46 283.46" xml:space="preserve">
<g id="schrift">
	<g>
		<path fill="#4A4A49" d="M48.536,255.683c0.303-0.451,0.673-0.803,1.108-1.053c0.437-0.251,0.917-0.376,1.443-0.376
			c1.039,0,1.855,0.362,2.449,1.085c0.594,0.725,0.891,1.847,0.891,3.368v5.771h-3.136v-5.789c0-0.767-0.116-1.296-0.348-1.586
			c-0.231-0.291-0.586-0.437-1.062-0.437c-0.303,0-0.566,0.045-0.789,0.135s-0.408,0.215-0.557,0.376v7.301H45.4v-14.473h3.136
			V255.683z"/>
		<path fill="#4A4A49" d="M65.076,264.468c-0.087-0.16-0.166-0.34-0.236-0.537c-0.071-0.198-0.132-0.402-0.181-0.613
			c-0.297,0.415-0.656,0.744-1.076,0.988c-0.421,0.244-0.931,0.367-1.531,0.367c-0.953,0-1.727-0.275-2.324-0.826
			c-0.597-0.551-0.895-1.283-0.895-2.199c0-0.995,0.373-1.764,1.118-2.305c0.746-0.541,1.879-0.812,3.4-0.812h1.141v-0.714
			c0-0.427-0.101-0.755-0.301-0.983c-0.201-0.229-0.512-0.344-0.933-0.344c-0.359,0-0.626,0.086-0.803,0.256
			c-0.176,0.17-0.264,0.435-0.264,0.793l-3.034-0.01l-0.019-0.055c-0.043-0.916,0.337-1.681,1.141-2.297
			c0.804-0.615,1.868-0.923,3.191-0.923c1.237,0,2.241,0.31,3.01,0.928c0.771,0.618,1.155,1.503,1.155,2.653v3.785
			c0,0.538,0.045,1.036,0.135,1.494c0.089,0.457,0.224,0.912,0.403,1.363L65.076,264.468z M63.007,262.437
			c0.309,0,0.594-0.062,0.854-0.186s0.47-0.284,0.631-0.482V260.2h-1.113c-0.495,0-0.855,0.121-1.081,0.362
			c-0.226,0.241-0.339,0.548-0.339,0.919c0,0.284,0.098,0.515,0.292,0.69C62.446,262.349,62.698,262.437,63.007,262.437z"/>
		<path fill="#4A4A49" d="M78.185,257.204l-1.141-0.01c-0.359,0-0.653,0.061-0.881,0.182c-0.229,0.12-0.399,0.292-0.51,0.515v6.587
			h-3.136v-10.038h2.95l0.111,1.476c0.21-0.526,0.488-0.935,0.835-1.225c0.346-0.291,0.751-0.437,1.215-0.437
			c0.148,0,0.3,0.011,0.455,0.032c0.154,0.022,0.291,0.048,0.408,0.079L78.185,257.204z"/>
		<path fill="#4A4A49" d="M86.348,262.065h4.564v2.412h-8.525v-1.744l4.462-5.882h-4.268v-2.412h8.238v1.688L86.348,262.065z"/>
		<path fill="#4A4A49" d="M99.077,264.478H95.95v-2.635h3.127V264.478z"/>
		<path fill="#4A4A49" d="M105.124,264.478v-7.867h-1.447v-2.171h1.447V253.4c0-1.156,0.347-2.044,1.039-2.663
			c0.692-0.618,1.673-0.928,2.941-0.928c0.234,0,0.476,0.018,0.723,0.052c0.248,0.034,0.523,0.082,0.826,0.144l-0.232,2.311
			c-0.166-0.031-0.316-0.055-0.449-0.07c-0.134-0.015-0.296-0.023-0.487-0.023c-0.39,0-0.689,0.103-0.899,0.307
			c-0.211,0.204-0.316,0.495-0.316,0.872v1.039h1.949v2.171h-1.949v7.867H105.124z"/>
		<path fill="#4A4A49" d="M120.151,257.204l-1.141-0.01c-0.358,0-0.652,0.061-0.881,0.182c-0.229,0.12-0.399,0.292-0.511,0.515
			v6.587h-3.136v-10.038h2.95l0.111,1.476c0.21-0.526,0.488-0.935,0.835-1.225c0.347-0.291,0.752-0.437,1.215-0.437
			c0.148,0,0.301,0.011,0.455,0.032c0.154,0.022,0.291,0.048,0.408,0.079L120.151,257.204z"/>
		<path fill="#4A4A49" d="M129.049,264.673c-1.479,0-2.658-0.465-3.539-1.393c-0.882-0.928-1.322-2.09-1.322-3.488v-0.352
			c0-1.528,0.4-2.775,1.201-3.744c0.801-0.968,1.947-1.448,3.438-1.442c1.36,0,2.428,0.408,3.2,1.225
			c0.773,0.816,1.16,1.924,1.16,3.321v1.643h-5.733l-0.019,0.055c0.068,0.514,0.278,0.937,0.631,1.267
			c0.353,0.331,0.822,0.497,1.41,0.497c0.594,0,1.068-0.047,1.424-0.14s0.806-0.254,1.35-0.482l0.742,1.911
			c-0.438,0.321-1.006,0.589-1.702,0.803C130.594,264.565,129.847,264.673,129.049,264.673z M128.827,256.666
			c-0.451,0-0.79,0.161-1.016,0.482c-0.227,0.321-0.363,0.751-0.413,1.29l0.027,0.046h2.7v-0.241c0-0.507-0.105-0.896-0.315-1.169
			S129.272,256.666,128.827,256.666z"/>
		<path fill="#4A4A49" d="M140.932,252.11h-3.146v-2.105h3.146V252.11z M140.932,264.478h-3.146v-10.038h3.146V264.478z"/>
		<path fill="#4A4A49" d="M146.656,264.478v-7.867h-1.447v-2.171h1.447V253.4c0-1.156,0.346-2.044,1.039-2.663
			c0.691-0.618,1.672-0.928,2.941-0.928c0.234,0,0.475,0.018,0.723,0.052s0.523,0.082,0.826,0.144l-0.232,2.311
			c-0.166-0.031-0.316-0.055-0.449-0.07c-0.135-0.015-0.297-0.023-0.488-0.023c-0.389,0-0.689,0.103-0.898,0.307
			c-0.211,0.204-0.316,0.495-0.316,0.872v1.039h1.949v2.171h-1.949v7.867H146.656z"/>
		<path fill="#4A4A49" d="M162.037,263.29c-0.322,0.445-0.717,0.787-1.184,1.025c-0.467,0.237-0.994,0.357-1.582,0.357
			c-1.039,0-1.854-0.334-2.445-1.002c-0.59-0.668-0.885-1.704-0.885-3.108v-6.123h3.127v6.142c0,0.562,0.105,0.983,0.318,1.262
			c0.215,0.278,0.52,0.418,0.914,0.418c0.334,0,0.629-0.047,0.883-0.14c0.252-0.093,0.469-0.231,0.648-0.417v-7.265h3.137v10.038
			h-2.738L162.037,263.29z"/>
		<path fill="#4A4A49" d="M172.713,254.439l0.121,1.41c0.328-0.501,0.732-0.892,1.215-1.174c0.482-0.281,1.021-0.422,1.615-0.422
			c0.982,0,1.752,0.318,2.305,0.956c0.555,0.637,0.83,1.65,0.83,3.043v6.225h-3.135v-6.234c0-0.575-0.119-0.981-0.357-1.22
			s-0.59-0.357-1.053-0.357c-0.291,0-0.549,0.053-0.775,0.157c-0.225,0.105-0.418,0.251-0.58,0.437v7.218h-3.125v-10.038H172.713z"
			/>
		<path fill="#4A4A49" d="M187.305,260.488h-0.527v3.989h-3.137v-14.473h3.137v8.117h0.416l2.145-3.683h3.59l-3.117,4.536
			l3.609,5.502h-3.572L187.305,260.488z"/>
		<path fill="#4A4A49" d="M200.654,264.478h-3.127v-2.635h3.127V264.478z"/>
		<path fill="#4A4A49" d="M208.918,254.439l0.121,1.41c0.328-0.501,0.732-0.892,1.215-1.174c0.482-0.281,1.021-0.422,1.615-0.422
			c0.982,0,1.752,0.318,2.305,0.956c0.555,0.637,0.83,1.65,0.83,3.043v6.225h-3.135v-6.234c0-0.575-0.119-0.981-0.357-1.22
			s-0.59-0.357-1.053-0.357c-0.291,0-0.549,0.053-0.775,0.157c-0.225,0.105-0.418,0.251-0.58,0.437v7.218h-3.125v-10.038H208.918z"
			/>
		<path fill="#4A4A49" d="M224.43,264.673c-1.479,0-2.658-0.465-3.539-1.393s-1.322-2.09-1.322-3.488v-0.352
			c0-1.528,0.4-2.775,1.201-3.744c0.801-0.968,1.947-1.448,3.438-1.442c1.361,0,2.428,0.408,3.201,1.225s1.16,1.924,1.16,3.321
			v1.643h-5.734l-0.018,0.055c0.068,0.514,0.277,0.937,0.631,1.267c0.352,0.331,0.822,0.497,1.41,0.497
			c0.594,0,1.068-0.047,1.424-0.14s0.805-0.254,1.35-0.482l0.742,1.911c-0.439,0.321-1.006,0.589-1.703,0.803
			C225.975,264.565,225.229,264.673,224.43,264.673z M224.207,256.666c-0.451,0-0.789,0.161-1.016,0.482s-0.363,0.751-0.412,1.29
			l0.027,0.046h2.699v-0.241c0-0.507-0.105-0.896-0.314-1.169C224.98,256.802,224.652,256.666,224.207,256.666z"/>
		<path fill="#4A4A49" d="M236.74,251.944v2.495h1.697v2.171h-1.697v4.602c0,0.358,0.072,0.617,0.217,0.774
			c0.146,0.158,0.342,0.237,0.59,0.237c0.197,0,0.354-0.007,0.469-0.02c0.113-0.012,0.262-0.037,0.441-0.074l0.223,2.32
			c-0.348,0.08-0.66,0.137-0.938,0.171c-0.279,0.034-0.607,0.052-0.984,0.052c-1.033,0-1.814-0.275-2.346-0.826
			c-0.533-0.551-0.799-1.423-0.799-2.616v-4.62h-1.41v-2.171h1.41v-2.495H236.74z"/>
	</g>
	<g>
		<path fill="#DC0267" d="M80.585,226.419h0.191l6.062-30.311h10.378l-10.6,46.211H76.523l-7.776-28.501h-0.19l-7.712,28.501H50.752
			L40.12,196.108h10.41l6.062,30.311h0.19l8.157-30.311h7.458L80.585,226.419z"/>
		<path fill="#DC0267" d="M119.711,234.067h19.9v8.252h-30.659v-46.211h10.759V234.067z"/>
		<path fill="#DC0267" d="M177.119,233.337h-14.568l-2.602,8.982h-10.791l14.916-46.211h11.521l14.949,46.211h-10.791
			L177.119,233.337z M164.932,225.085h9.807l-4.824-16.535h-0.189L164.932,225.085z"/>
		<path fill="#DC0267" d="M240.176,242.319H229.48l-16.916-29.453l-0.191,0.063v29.39h-10.76v-46.211h10.76l16.916,29.453
			l0.191-0.063v-29.39h10.695V242.319z"/>
	</g>
</g>
<g id="brocken">
	<path fill="#878787" d="M184.713,179.129l-0.479-11.991h-1.526c0.571-0.505,0.94-1.244,0.94-2.08c0-1.521-1.197-2.752-2.672-2.752
		c-1.476,0-2.673,1.231-2.673,2.752c0,0.836,0.369,1.575,0.94,2.08h-1.546l-0.445,11.584c-8.018-0.396-16.129-0.666-24.312-0.792
		l-6.405-9.221h6.444c0.474,0,0.858-0.366,0.858-0.827v-1.202c0-0.457-0.385-0.825-0.858-0.825h-7.866v-4.788h4.729
		c0.34,0,0.616-0.291,0.616-0.655v-0.954c0-0.362-0.276-0.654-0.616-0.654h-4.729v-4.893h3.5c0.29,0,0.525-0.291,0.525-0.655v-0.954
		c0-0.362-0.235-0.654-0.525-0.654h-3.5v-4.001h7.996c0.474,0,0.858-0.366,0.858-0.827v-1.202c0-0.457-0.385-0.825-0.858-0.825
		h-7.996v-19.25v0v-0.446v-0.592v-9.752c0-0.248-0.203-0.447-0.453-0.447h-0.976v-10.969v-0.911v-6.607h-0.79V87.27V76.884v-0.622
		v-0.277c0-0.664-0.53-1.2-1.189-1.2h-0.411c-0.659,0-1.188,0.536-1.188,1.2v0.277v0.622V87.27v8.546h-0.79v6.607v0.911v10.969
		h-0.99c-0.253,0-0.455,0.199-0.455,0.447v9.752v0.592v0.447v19.25h-7.876c-0.481,0-0.862,0.368-0.862,0.825v1.202
		c0,0.461,0.381,0.827,0.862,0.827h7.876v4.001h-3.382c-0.294,0-0.527,0.292-0.527,0.654v0.954c0,0.364,0.233,0.655,0.527,0.655
		h3.382v4.893h-4.61c-0.345,0-0.619,0.292-0.619,0.654v0.954c0,0.364,0.273,0.655,0.619,0.655h4.61v4.788h-8.006
		c-0.481,0-0.862,0.368-0.862,0.825v1.202c0,0.461,0.381,0.827,0.862,0.827h6.611l-6.396,9.211l-2.55,0.04
		c-6.011,0.112-11.993,0.307-17.933,0.568v-8.444h-4.402c0.009-0.116,0.034-0.227,0.034-0.345c0-2.509-1.975-4.54-4.409-4.54
		c-2.434,0-4.408,2.031-4.408,4.54c0,0.118,0.025,0.229,0.034,0.345h-4.403v9.441c-22.567,1.572-44.195,4.215-63.802,7.845
		l0.54,2.939c29.56-5.46,63.73-8.689,98.8-9.35l0.39-0.01l3.35-0.05h0.09c3.1-0.051,6.4-0.07,10.06-0.07
		c3.39,0,6.76,0.02,10.129,0.08c1.15,0.01,2.301,0.02,3.44,0.05c35.55,0.65,69.8,3.9,99.8,9.47l0.54-2.939
		C233.673,183.452,209.743,180.637,184.713,179.129z M140.814,87.27h1.372v8.546h-1.372V87.27z M140.308,103.334h2.385v10.969
		h-2.385V103.334z M139.146,125.541h4.692v19.25h-4.692V125.541z M141.47,177.83c-2.85,0-5.47,0.01-7.96,0.04l5.63-8.09l0.74-1.071
		h3.244l0.736,1.071l5.63,8.1C146.82,177.84,144.15,177.83,141.47,177.83z"/>
	<g id="violett">
		<path fill="#DC0267" d="M141.705,74.785h-0.411c-0.659,0-1.188,0.536-1.188,1.2v0.277v0.622V87.27h2.789V76.884v-0.622v-0.277
			C142.895,75.321,142.364,74.785,141.705,74.785z"/>
		<path fill="#DC0267" d="M144.66,114.303h-6.334c-0.253,0-0.455,0.199-0.455,0.447v9.752v0.592v0.447h0.455h6.334h0.453v-0.447
			v-0.592v-9.752C145.113,114.502,144.91,114.303,144.66,114.303z"/>
		<polygon fill="#DC0267" points="139.315,95.816 139.315,102.423 139.315,103.334 143.685,103.334 143.685,102.423 143.685,95.816 
					"/>
	</g>
</g>
<g id="funk">
	<g>
		<path fill="#DC0267" d="M102.746,118.453l-8.818,10.859C72.006,120.3,56.625,99.151,56.625,74.496
			c0-24.138,14.75-44.924,35.948-54.244l9.202,11.229c-17.594,6.894-30.016,23.679-30.016,43.301
			C71.759,94.761,84.635,111.803,102.746,118.453z"/>
		<path fill="#DC0267" d="M113.532,105.165l-6.016,7.403c-8.094-3.875-14.756-10.06-19.012-17.636h1.731l6.214-6.037
			C99.869,96.06,105.955,101.849,113.532,105.165z"/>
		<path fill="#DC0267" d="M90.235,76.154h-6.882c-0.007-0.28-0.007-0.557-0.007-0.844c0-16.192,9.712-30.231,23.908-37.14
			l6.293,7.683c-11.904,5.2-20.148,16.526-20.148,29.659c0,1.344,0.084,2.668,0.255,3.967L90.235,76.154z"/>
		<path fill="#DC0267" d="M123.128,93.34l-3.596,4.423c-8.641-3.61-14.75-12.456-14.75-22.785c0-10.101,5.832-18.772,14.153-22.537
			l3.746,4.573c-7.051,2.691-12.088,9.773-12.088,18.082C110.593,83.58,115.843,90.78,123.128,93.34z"/>
		<path fill="#DC0267" d="M129.607,85.357l-2.051,2.523c-5.008-2.139-8.499-7.019-8.499-12.692c0-5.564,3.363-10.36,8.215-12.569
			l2.142,2.614c-4.016,1.645-6.832,5.514-6.832,10.023C122.583,79.837,125.492,83.761,129.607,85.357z"/>
	</g>
	<g>
		<path fill="#DC0267" d="M226.35,74.495c0,24.656-15.381,45.804-37.301,54.815l-8.82-10.858
			c17.893-6.575,30.678-23.283,30.98-42.953h4.789l-4.988-5.067c-0.035-0.37-0.07-0.733-0.113-1.095h8.387V59.062h-9.527
			l6.242-6.343h-10.463c0-0.007-0.008-0.013-0.018-0.028c-5.277-9.562-13.887-17.126-24.318-21.211l9.203-11.229
			C211.6,29.57,226.35,50.355,226.35,74.495z"/>
		<path fill="#DC0267" d="M199.631,75.311c0,16.288-9.83,30.397-24.17,37.257l-6.018-7.403
			c11.898-5.207,20.135-16.527,20.135-29.652c0-13.133-8.242-24.459-20.148-29.659l6.293-7.683
			c8.67,4.217,15.674,11.104,19.801,19.504l-5.611,5.422l-1.021,0.992l1.057,1.016l9.676,9.335v0.006
			C199.631,74.739,199.631,75.018,199.631,75.311z"/>
		<path fill="#DC0267" d="M159.846,93.34l3.6,4.423c8.639-3.61,14.748-12.456,14.748-22.785c0-10.101-5.832-18.772-14.152-22.537
			l-3.746,4.573c7.051,2.691,12.088,9.773,12.088,18.082C172.383,83.58,167.133,90.78,159.846,93.34z"/>
		<path fill="#DC0267" d="M153.369,85.357l2.053,2.523c5.008-2.139,8.496-7.019,8.496-12.692c0-5.564-3.361-10.36-8.213-12.569
			l-2.143,2.614c4.016,1.645,6.83,5.514,6.83,10.023C160.393,79.837,157.484,83.761,153.369,85.357z"/>
	</g>
	<polygon id="pfeil_x5F_links" fill="#FAB313" points="76.457,82.888 86.744,82.887 81.607,77.658 89.525,77.658 97.698,85.552 
		89.525,93.436 81.607,93.436 86.744,88.206 76.457,88.206 	"/>
	<polygon id="pfeil_x5F_rechts" fill="#FAB313" points="211.109,73.763 204.965,67.524 217.24,67.524 217.24,61.188 204.965,61.188 
		211.109,54.949 201.654,54.949 191.904,64.359 201.654,73.763 	"/>
</g>
<g id="rahmen">
	<path d="M266.455,277.958H17.006c-6.343,0-11.504-5.16-11.504-11.504V17.006c0-6.343,5.161-11.504,11.504-11.504h249.449
		c6.344,0,11.504,5.161,11.504,11.504v249.448C277.959,272.798,272.799,277.958,266.455,277.958z M17.006,11.502
		c-3.035,0-5.504,2.469-5.504,5.504v249.448c0,3.035,2.469,5.504,5.504,5.504h249.449c3.035,0,5.504-2.469,5.504-5.504V17.006
		c0-3.035-2.469-5.504-5.504-5.504H17.006z"/>
</g>
<g id="CutContour_1_">
	<g id="CutContour">
		<path fill="none" stroke="#F29FC5" stroke-miterlimit="10" d="M0,274.955c0,4.696,3.807,8.504,8.504,8.504h266.452
			c4.696,0,8.504-3.808,8.504-8.504V8.504c0-4.697-3.808-8.504-8.504-8.504H8.504C3.807,0,0,3.807,0,8.504V274.955z"/>
	</g>
</g>
</svg>
